<?xml version="1.0" encoding="utf-8" standalone="no"?>
<!DOCTYPE svg PUBLIC "-//W3C//DTD SVG 1.1//EN"
  "http://www.w3.org/Graphics/SVG/1.1/DTD/svg11.dtd">
<!-- Created with matplotlib (http://matplotlib.org/) -->
<svg height="208pt" version="1.1" viewBox="0 0 502 208" width="502pt" xmlns="http://www.w3.org/2000/svg" xmlns:xlink="http://www.w3.org/1999/xlink">
 <defs>
  <style type="text/css">
*{stroke-linecap:butt;stroke-linejoin:round;}
  </style>
 </defs>
 <g id="figure_1">
  <g id="patch_1">
   <path d="M 0 208.8 
L 502.988281 208.8 
L 502.988281 0 
L 0 0 
z
" style="fill:#ffffff;"/>
  </g>
  <g id="axes_1">
   <g id="patch_2">
    <path d="M 34.240625 171.24375 
L 342.1 171.24375 
L 342.1 22.318125 
L 34.240625 22.318125 
z
" style="fill:#ffffff;"/>
   </g>
   <g id="PathCollection_1">
    <defs>
     <path d="M 0 0.707107 
C 0.187527 0.707107 0.367398 0.632602 0.5 0.5 
C 0.632602 0.367398 0.707107 0.187527 0.707107 0 
C 0.707107 -0.187527 0.632602 -0.367398 0.5 -0.5 
C 0.367398 -0.632602 0.187527 -0.707107 0 -0.707107 
C -0.187527 -0.707107 -0.367398 -0.632602 -0.5 -0.5 
C -0.632602 -0.367398 -0.707107 -0.187527 -0.707107 0 
C -0.707107 0.187527 -0.632602 0.367398 -0.5 0.5 
C -0.367398 0.632602 -0.187527 0.707107 0 0.707107 
z
" id="mc46b59a00c" style="stroke:#1f77b4;"/>
    </defs>
    <g clip-path="url(#pafddf7640d)">
     <use style="fill:#1f77b4;stroke:#1f77b4;" x="48.328791" xlink:href="#mc46b59a00c" y="164.021901"/>
     <use style="fill:#1f77b4;stroke:#1f77b4;" x="49.422907" xlink:href="#mc46b59a00c" y="156.809482"/>
     <use style="fill:#1f77b4;stroke:#1f77b4;" x="50.517023" xlink:href="#mc46b59a00c" y="146.146417"/>
     <use style="fill:#1f77b4;stroke:#1f77b4;" x="51.611138" xlink:href="#mc46b59a00c" y="132.775554"/>
     <use style="fill:#1f77b4;stroke:#1f77b4;" x="52.705254" xlink:href="#mc46b59a00c" y="125.020106"/>
     <use style="fill:#1f77b4;stroke:#1f77b4;" x="53.79937" xlink:href="#mc46b59a00c" y="122.924682"/>
     <use style="fill:#1f77b4;stroke:#1f77b4;" x="54.893486" xlink:href="#mc46b59a00c" y="118.023633"/>
     <use style="fill:#1f77b4;stroke:#1f77b4;" x="55.987601" xlink:href="#mc46b59a00c" y="110.412235"/>
     <use style="fill:#1f77b4;stroke:#1f77b4;" x="57.081717" xlink:href="#mc46b59a00c" y="106.044476"/>
     <use style="fill:#1f77b4;stroke:#1f77b4;" x="58.175833" xlink:href="#mc46b59a00c" y="102.208074"/>
     <use style="fill:#1f77b4;stroke:#1f77b4;" x="59.269949" xlink:href="#mc46b59a00c" y="99.08483"/>
     <use style="fill:#1f77b4;stroke:#1f77b4;" x="60.364064" xlink:href="#mc46b59a00c" y="95.152962"/>
     <use style="fill:#1f77b4;stroke:#1f77b4;" x="61.45818" xlink:href="#mc46b59a00c" y="92.696054"/>
     <use style="fill:#1f77b4;stroke:#1f77b4;" x="62.552296" xlink:href="#mc46b59a00c" y="90.748962"/>
     <use style="fill:#1f77b4;stroke:#1f77b4;" x="63.646412" xlink:href="#mc46b59a00c" y="88.088567"/>
     <use style="fill:#1f77b4;stroke:#1f77b4;" x="64.740528" xlink:href="#mc46b59a00c" y="85.814844"/>
     <use style="fill:#1f77b4;stroke:#1f77b4;" x="65.834643" xlink:href="#mc46b59a00c" y="84.020675"/>
     <use style="fill:#1f77b4;stroke:#1f77b4;" x="66.928759" xlink:href="#mc46b59a00c" y="82.272119"/>
     <use style="fill:#1f77b4;stroke:#1f77b4;" x="68.022875" xlink:href="#mc46b59a00c" y="81.075301"/>
     <use style="fill:#1f77b4;stroke:#1f77b4;" x="69.116991" xlink:href="#mc46b59a00c" y="79.120753"/>
     <use style="fill:#1f77b4;stroke:#1f77b4;" x="70.211106" xlink:href="#mc46b59a00c" y="78.253241"/>
     <use style="fill:#1f77b4;stroke:#1f77b4;" x="71.305222" xlink:href="#mc46b59a00c" y="77.119309"/>
     <use style="fill:#1f77b4;stroke:#1f77b4;" x="72.399338" xlink:href="#mc46b59a00c" y="76.324155"/>
     <use style="fill:#1f77b4;stroke:#1f77b4;" x="73.493454" xlink:href="#mc46b59a00c" y="75.321449"/>
     <use style="fill:#1f77b4;stroke:#1f77b4;" x="74.587569" xlink:href="#mc46b59a00c" y="74.551191"/>
     <use style="fill:#1f77b4;stroke:#1f77b4;" x="75.681685" xlink:href="#mc46b59a00c" y="74.204897"/>
     <use style="fill:#1f77b4;stroke:#1f77b4;" x="76.775801" xlink:href="#mc46b59a00c" y="73.312414"/>
     <use style="fill:#1f77b4;stroke:#1f77b4;" x="77.869917" xlink:href="#mc46b59a00c" y="72.505852"/>
     <use style="fill:#1f77b4;stroke:#1f77b4;" x="78.964033" xlink:href="#mc46b59a00c" y="72.004531"/>
     <use style="fill:#1f77b4;stroke:#1f77b4;" x="80.058148" xlink:href="#mc46b59a00c" y="71.146266"/>
     <use style="fill:#1f77b4;stroke:#1f77b4;" x="81.152264" xlink:href="#mc46b59a00c" y="69.731456"/>
     <use style="fill:#1f77b4;stroke:#1f77b4;" x="82.24638" xlink:href="#mc46b59a00c" y="69.148696"/>
    </g>
   </g>
   <g id="PathCollection_2">
    <defs>
     <path d="M 0 0.707107 
C 0.187527 0.707107 0.367398 0.632602 0.5 0.5 
C 0.632602 0.367398 0.707107 0.187527 0.707107 0 
C 0.707107 -0.187527 0.632602 -0.367398 0.5 -0.5 
C 0.367398 -0.632602 0.187527 -0.707107 0 -0.707107 
C -0.187527 -0.707107 -0.367398 -0.632602 -0.5 -0.5 
C -0.632602 -0.367398 -0.707107 -0.187527 -0.707107 0 
C -0.707107 0.187527 -0.632602 0.367398 -0.5 0.5 
C -0.367398 0.632602 -0.187527 0.707107 0 0.707107 
z
" id="m10d4db622d" style="stroke:#ff7f0e;"/>
    </defs>
    <g clip-path="url(#pafddf7640d)">
     <use style="fill:#ff7f0e;stroke:#ff7f0e;" x="49.422907" xlink:href="#m10d4db622d" y="144.818088"/>
     <use style="fill:#ff7f0e;stroke:#ff7f0e;" x="51.611138" xlink:href="#m10d4db622d" y="126.40514"/>
     <use style="fill:#ff7f0e;stroke:#ff7f0e;" x="53.79937" xlink:href="#m10d4db622d" y="120.358714"/>
     <use style="fill:#ff7f0e;stroke:#ff7f0e;" x="55.987601" xlink:href="#m10d4db622d" y="108.931772"/>
     <use style="fill:#ff7f0e;stroke:#ff7f0e;" x="58.175833" xlink:href="#m10d4db622d" y="95.113363"/>
     <use style="fill:#ff7f0e;stroke:#ff7f0e;" x="60.364064" xlink:href="#m10d4db622d" y="82.585706"/>
     <use style="fill:#ff7f0e;stroke:#ff7f0e;" x="62.552296" xlink:href="#m10d4db622d" y="75.956232"/>
     <use style="fill:#ff7f0e;stroke:#ff7f0e;" x="64.740528" xlink:href="#m10d4db622d" y="71.444948"/>
     <use style="fill:#ff7f0e;stroke:#ff7f0e;" x="66.928759" xlink:href="#m10d4db622d" y="67.12774"/>
     <use style="fill:#ff7f0e;stroke:#ff7f0e;" x="69.116991" xlink:href="#m10d4db622d" y="63.775569"/>
     <use style="fill:#ff7f0e;stroke:#ff7f0e;" x="71.305222" xlink:href="#m10d4db622d" y="60.46313"/>
     <use style="fill:#ff7f0e;stroke:#ff7f0e;" x="73.493454" xlink:href="#m10d4db622d" y="57.772278"/>
     <use style="fill:#ff7f0e;stroke:#ff7f0e;" x="75.681685" xlink:href="#m10d4db622d" y="55.838768"/>
     <use style="fill:#ff7f0e;stroke:#ff7f0e;" x="77.869917" xlink:href="#m10d4db622d" y="54.18855"/>
     <use style="fill:#ff7f0e;stroke:#ff7f0e;" x="80.058148" xlink:href="#m10d4db622d" y="52.325097"/>
     <use style="fill:#ff7f0e;stroke:#ff7f0e;" x="82.24638" xlink:href="#m10d4db622d" y="50.554867"/>
     <use style="fill:#ff7f0e;stroke:#ff7f0e;" x="84.434611" xlink:href="#m10d4db622d" y="49.075591"/>
     <use style="fill:#ff7f0e;stroke:#ff7f0e;" x="86.622843" xlink:href="#m10d4db622d" y="48.559141"/>
     <use style="fill:#ff7f0e;stroke:#ff7f0e;" x="88.811074" xlink:href="#m10d4db622d" y="47.003382"/>
     <use style="fill:#ff7f0e;stroke:#ff7f0e;" x="90.999306" xlink:href="#m10d4db622d" y="45.348168"/>
     <use style="fill:#ff7f0e;stroke:#ff7f0e;" x="93.187538" xlink:href="#m10d4db622d" y="44.972311"/>
     <use style="fill:#ff7f0e;stroke:#ff7f0e;" x="95.375769" xlink:href="#m10d4db622d" y="43.876173"/>
     <use style="fill:#ff7f0e;stroke:#ff7f0e;" x="97.564001" xlink:href="#m10d4db622d" y="43.079466"/>
     <use style="fill:#ff7f0e;stroke:#ff7f0e;" x="99.752232" xlink:href="#m10d4db622d" y="42.563893"/>
     <use style="fill:#ff7f0e;stroke:#ff7f0e;" x="101.940464" xlink:href="#m10d4db622d" y="41.607081"/>
     <use style="fill:#ff7f0e;stroke:#ff7f0e;" x="104.128695" xlink:href="#m10d4db622d" y="40.896473"/>
     <use style="fill:#ff7f0e;stroke:#ff7f0e;" x="106.316927" xlink:href="#m10d4db622d" y="40.801577"/>
     <use style="fill:#ff7f0e;stroke:#ff7f0e;" x="108.505158" xlink:href="#m10d4db622d" y="39.416147"/>
     <use style="fill:#ff7f0e;stroke:#ff7f0e;" x="110.69339" xlink:href="#m10d4db622d" y="39.375034"/>
     <use style="fill:#ff7f0e;stroke:#ff7f0e;" x="112.881621" xlink:href="#m10d4db622d" y="38.613415"/>
     <use style="fill:#ff7f0e;stroke:#ff7f0e;" x="115.069853" xlink:href="#m10d4db622d" y="37.927026"/>
     <use style="fill:#ff7f0e;stroke:#ff7f0e;" x="117.258084" xlink:href="#m10d4db622d" y="37.531992"/>
    </g>
   </g>
   <g id="PathCollection_3">
    <defs>
     <path d="M 0 0.707107 
C 0.187527 0.707107 0.367398 0.632602 0.5 0.5 
C 0.632602 0.367398 0.707107 0.187527 0.707107 0 
C 0.707107 -0.187527 0.632602 -0.367398 0.5 -0.5 
C 0.367398 -0.632602 0.187527 -0.707107 0 -0.707107 
C -0.187527 -0.707107 -0.367398 -0.632602 -0.5 -0.5 
C -0.632602 -0.367398 -0.707107 -0.187527 -0.707107 0 
C -0.707107 0.187527 -0.632602 0.367398 -0.5 0.5 
C -0.367398 0.632602 -0.187527 0.707107 0 0.707107 
z
" id="m25c648018d" style="stroke:#2ca02c;"/>
    </defs>
    <g clip-path="url(#pafddf7640d)">
     <use style="fill:#2ca02c;stroke:#2ca02c;" x="50.517023" xlink:href="#m25c648018d" y="125.023898"/>
     <use style="fill:#2ca02c;stroke:#2ca02c;" x="53.79937" xlink:href="#m25c648018d" y="104.877021"/>
     <use style="fill:#2ca02c;stroke:#2ca02c;" x="57.081717" xlink:href="#m25c648018d" y="94.959386"/>
     <use style="fill:#2ca02c;stroke:#2ca02c;" x="60.364064" xlink:href="#m25c648018d" y="82.818673"/>
     <use style="fill:#2ca02c;stroke:#2ca02c;" x="63.646412" xlink:href="#m25c648018d" y="74.047594"/>
     <use style="fill:#2ca02c;stroke:#2ca02c;" x="66.928759" xlink:href="#m25c648018d" y="67.827433"/>
     <use style="fill:#2ca02c;stroke:#2ca02c;" x="70.211106" xlink:href="#m25c648018d" y="61.923207"/>
     <use style="fill:#2ca02c;stroke:#2ca02c;" x="73.493454" xlink:href="#m25c648018d" y="58.376423"/>
     <use style="fill:#2ca02c;stroke:#2ca02c;" x="76.775801" xlink:href="#m25c648018d" y="54.848716"/>
     <use style="fill:#2ca02c;stroke:#2ca02c;" x="80.058148" xlink:href="#m25c648018d" y="51.706455"/>
     <use style="fill:#2ca02c;stroke:#2ca02c;" x="83.340496" xlink:href="#m25c648018d" y="49.177337"/>
     <use style="fill:#2ca02c;stroke:#2ca02c;" x="86.622843" xlink:href="#m25c648018d" y="47.154021"/>
     <use style="fill:#2ca02c;stroke:#2ca02c;" x="89.90519" xlink:href="#m25c648018d" y="43.880179"/>
     <use style="fill:#2ca02c;stroke:#2ca02c;" x="93.187538" xlink:href="#m25c648018d" y="42.967302"/>
     <use style="fill:#2ca02c;stroke:#2ca02c;" x="96.469885" xlink:href="#m25c648018d" y="43.568757"/>
     <use style="fill:#2ca02c;stroke:#2ca02c;" x="99.752232" xlink:href="#m25c648018d" y="39.843405"/>
     <use style="fill:#2ca02c;stroke:#2ca02c;" x="103.034579" xlink:href="#m25c648018d" y="40.622715"/>
     <use style="fill:#2ca02c;stroke:#2ca02c;" x="106.316927" xlink:href="#m25c648018d" y="40.540446"/>
     <use style="fill:#2ca02c;stroke:#2ca02c;" x="109.599274" xlink:href="#m25c648018d" y="39.192953"/>
     <use style="fill:#2ca02c;stroke:#2ca02c;" x="112.881621" xlink:href="#m25c648018d" y="38.064598"/>
     <use style="fill:#2ca02c;stroke:#2ca02c;" x="116.163969" xlink:href="#m25c648018d" y="37.287434"/>
     <use style="fill:#2ca02c;stroke:#2ca02c;" x="119.446316" xlink:href="#m25c648018d" y="35.795632"/>
     <use style="fill:#2ca02c;stroke:#2ca02c;" x="122.728663" xlink:href="#m25c648018d" y="34.658041"/>
     <use style="fill:#2ca02c;stroke:#2ca02c;" x="126.011011" xlink:href="#m25c648018d" y="33.732929"/>
     <use style="fill:#2ca02c;stroke:#2ca02c;" x="129.293358" xlink:href="#m25c648018d" y="33.551489"/>
     <use style="fill:#2ca02c;stroke:#2ca02c;" x="132.575705" xlink:href="#m25c648018d" y="31.996138"/>
     <use style="fill:#2ca02c;stroke:#2ca02c;" x="135.858053" xlink:href="#m25c648018d" y="31.84667"/>
     <use style="fill:#2ca02c;stroke:#2ca02c;" x="139.1404" xlink:href="#m25c648018d" y="30.884119"/>
     <use style="fill:#2ca02c;stroke:#2ca02c;" x="142.422747" xlink:href="#m25c648018d" y="31.052656"/>
     <use style="fill:#2ca02c;stroke:#2ca02c;" x="145.705095" xlink:href="#m25c648018d" y="30.376012"/>
     <use style="fill:#2ca02c;stroke:#2ca02c;" x="148.987442" xlink:href="#m25c648018d" y="30.200437"/>
     <use style="fill:#2ca02c;stroke:#2ca02c;" x="152.269789" xlink:href="#m25c648018d" y="29.73014"/>
    </g>
   </g>
   <g id="PathCollection_4">
    <defs>
     <path d="M 0 0.707107 
C 0.187527 0.707107 0.367398 0.632602 0.5 0.5 
C 0.632602 0.367398 0.707107 0.187527 0.707107 0 
C 0.707107 -0.187527 0.632602 -0.367398 0.5 -0.5 
C 0.367398 -0.632602 0.187527 -0.707107 0 -0.707107 
C -0.187527 -0.707107 -0.367398 -0.632602 -0.5 -0.5 
C -0.632602 -0.367398 -0.707107 -0.187527 -0.707107 0 
C -0.707107 0.187527 -0.632602 0.367398 -0.5 0.5 
C -0.367398 0.632602 -0.187527 0.707107 0 0.707107 
z
" id="m01e2c6cb61" style="stroke:#d62728;"/>
    </defs>
    <g clip-path="url(#pafddf7640d)">
     <use style="fill:#d62728;stroke:#d62728;" x="51.611138" xlink:href="#m01e2c6cb61" y="109.01599"/>
     <use style="fill:#d62728;stroke:#d62728;" x="55.987601" xlink:href="#m01e2c6cb61" y="96.637126"/>
     <use style="fill:#d62728;stroke:#d62728;" x="60.364064" xlink:href="#m01e2c6cb61" y="83.399977"/>
     <use style="fill:#d62728;stroke:#d62728;" x="64.740528" xlink:href="#m01e2c6cb61" y="72.434743"/>
     <use style="fill:#d62728;stroke:#d62728;" x="69.116991" xlink:href="#m01e2c6cb61" y="64.239105"/>
     <use style="fill:#d62728;stroke:#d62728;" x="73.493454" xlink:href="#m01e2c6cb61" y="58.502231"/>
     <use style="fill:#d62728;stroke:#d62728;" x="77.869917" xlink:href="#m01e2c6cb61" y="54.005584"/>
     <use style="fill:#d62728;stroke:#d62728;" x="82.24638" xlink:href="#m01e2c6cb61" y="50.799637"/>
     <use style="fill:#d62728;stroke:#d62728;" x="86.622843" xlink:href="#m01e2c6cb61" y="47.039916"/>
     <use style="fill:#d62728;stroke:#d62728;" x="90.999306" xlink:href="#m01e2c6cb61" y="55.24168"/>
     <use style="fill:#d62728;stroke:#d62728;" x="95.375769" xlink:href="#m01e2c6cb61" y="58.435402"/>
     <use style="fill:#d62728;stroke:#d62728;" x="99.752232" xlink:href="#m01e2c6cb61" y="54.851486"/>
     <use style="fill:#d62728;stroke:#d62728;" x="104.128695" xlink:href="#m01e2c6cb61" y="53.667836"/>
     <use style="fill:#d62728;stroke:#d62728;" x="108.505158" xlink:href="#m01e2c6cb61" y="51.154371"/>
     <use style="fill:#d62728;stroke:#d62728;" x="112.881621" xlink:href="#m01e2c6cb61" y="54.885409"/>
     <use style="fill:#d62728;stroke:#d62728;" x="117.258084" xlink:href="#m01e2c6cb61" y="52.549106"/>
     <use style="fill:#d62728;stroke:#d62728;" x="121.634548" xlink:href="#m01e2c6cb61" y="48.968459"/>
     <use style="fill:#d62728;stroke:#d62728;" x="126.011011" xlink:href="#m01e2c6cb61" y="49.571056"/>
     <use style="fill:#d62728;stroke:#d62728;" x="130.387474" xlink:href="#m01e2c6cb61" y="49.206863"/>
     <use style="fill:#d62728;stroke:#d62728;" x="134.763937" xlink:href="#m01e2c6cb61" y="47.354924"/>
     <use style="fill:#d62728;stroke:#d62728;" x="139.1404" xlink:href="#m01e2c6cb61" y="47.923319"/>
     <use style="fill:#d62728;stroke:#d62728;" x="143.516863" xlink:href="#m01e2c6cb61" y="47.67512"/>
     <use style="fill:#d62728;stroke:#d62728;" x="147.893326" xlink:href="#m01e2c6cb61" y="47.276773"/>
     <use style="fill:#d62728;stroke:#d62728;" x="152.269789" xlink:href="#m01e2c6cb61" y="47.341904"/>
     <use style="fill:#d62728;stroke:#d62728;" x="156.646252" xlink:href="#m01e2c6cb61" y="47.288654"/>
     <use style="fill:#d62728;stroke:#d62728;" x="161.022715" xlink:href="#m01e2c6cb61" y="46.070697"/>
     <use style="fill:#d62728;stroke:#d62728;" x="165.399178" xlink:href="#m01e2c6cb61" y="46.460629"/>
     <use style="fill:#d62728;stroke:#d62728;" x="169.775641" xlink:href="#m01e2c6cb61" y="46.116628"/>
     <use style="fill:#d62728;stroke:#d62728;" x="174.152105" xlink:href="#m01e2c6cb61" y="45.62084"/>
     <use style="fill:#d62728;stroke:#d62728;" x="178.528568" xlink:href="#m01e2c6cb61" y="45.958479"/>
     <use style="fill:#d62728;stroke:#d62728;" x="182.905031" xlink:href="#m01e2c6cb61" y="45.562855"/>
     <use style="fill:#d62728;stroke:#d62728;" x="187.281494" xlink:href="#m01e2c6cb61" y="44.963227"/>
    </g>
   </g>
   <g id="PathCollection_5">
    <defs>
     <path d="M 0 0.707107 
C 0.187527 0.707107 0.367398 0.632602 0.5 0.5 
C 0.632602 0.367398 0.707107 0.187527 0.707107 0 
C 0.707107 -0.187527 0.632602 -0.367398 0.5 -0.5 
C 0.367398 -0.632602 0.187527 -0.707107 0 -0.707107 
C -0.187527 -0.707107 -0.367398 -0.632602 -0.5 -0.5 
C -0.632602 -0.367398 -0.707107 -0.187527 -0.707107 0 
C -0.707107 0.187527 -0.632602 0.367398 -0.5 0.5 
C -0.367398 0.632602 -0.187527 0.707107 0 0.707107 
z
" id="ma56d5c67ca" style="stroke:#9467bd;"/>
    </defs>
    <g clip-path="url(#pafddf7640d)">
     <use style="fill:#9467bd;stroke:#9467bd;" x="52.705254" xlink:href="#ma56d5c67ca" y="106.221549"/>
     <use style="fill:#9467bd;stroke:#9467bd;" x="58.175833" xlink:href="#ma56d5c67ca" y="101.591361"/>
     <use style="fill:#9467bd;stroke:#9467bd;" x="63.646412" xlink:href="#ma56d5c67ca" y="89.48889"/>
     <use style="fill:#9467bd;stroke:#9467bd;" x="69.116991" xlink:href="#ma56d5c67ca" y="81.130841"/>
     <use style="fill:#9467bd;stroke:#9467bd;" x="74.587569" xlink:href="#ma56d5c67ca" y="75.935995"/>
     <use style="fill:#9467bd;stroke:#9467bd;" x="80.058148" xlink:href="#ma56d5c67ca" y="71.750092"/>
     <use style="fill:#9467bd;stroke:#9467bd;" x="85.528727" xlink:href="#ma56d5c67ca" y="65.274126"/>
     <use style="fill:#9467bd;stroke:#9467bd;" x="90.999306" xlink:href="#ma56d5c67ca" y="61.588063"/>
     <use style="fill:#9467bd;stroke:#9467bd;" x="96.469885" xlink:href="#ma56d5c67ca" y="59.879264"/>
     <use style="fill:#9467bd;stroke:#9467bd;" x="101.940464" xlink:href="#ma56d5c67ca" y="57.715407"/>
     <use style="fill:#9467bd;stroke:#9467bd;" x="107.411043" xlink:href="#ma56d5c67ca" y="54.908246"/>
     <use style="fill:#9467bd;stroke:#9467bd;" x="112.881621" xlink:href="#ma56d5c67ca" y="56.129858"/>
     <use style="fill:#9467bd;stroke:#9467bd;" x="118.3522" xlink:href="#ma56d5c67ca" y="54.33306"/>
     <use style="fill:#9467bd;stroke:#9467bd;" x="123.822779" xlink:href="#ma56d5c67ca" y="51.7722"/>
     <use style="fill:#9467bd;stroke:#9467bd;" x="129.293358" xlink:href="#ma56d5c67ca" y="51.902432"/>
     <use style="fill:#9467bd;stroke:#9467bd;" x="134.763937" xlink:href="#ma56d5c67ca" y="48.473917"/>
     <use style="fill:#9467bd;stroke:#9467bd;" x="140.234516" xlink:href="#ma56d5c67ca" y="48.305829"/>
     <use style="fill:#9467bd;stroke:#9467bd;" x="145.705095" xlink:href="#ma56d5c67ca" y="48.366686"/>
     <use style="fill:#9467bd;stroke:#9467bd;" x="151.175673" xlink:href="#ma56d5c67ca" y="51.283873"/>
     <use style="fill:#9467bd;stroke:#9467bd;" x="156.646252" xlink:href="#ma56d5c67ca" y="50.42924"/>
     <use style="fill:#9467bd;stroke:#9467bd;" x="162.116831" xlink:href="#ma56d5c67ca" y="50.438431"/>
     <use style="fill:#9467bd;stroke:#9467bd;" x="167.58741" xlink:href="#ma56d5c67ca" y="50.234506"/>
     <use style="fill:#9467bd;stroke:#9467bd;" x="173.057989" xlink:href="#ma56d5c67ca" y="50.172925"/>
     <use style="fill:#9467bd;stroke:#9467bd;" x="178.528568" xlink:href="#ma56d5c67ca" y="49.315895"/>
     <use style="fill:#9467bd;stroke:#9467bd;" x="183.999146" xlink:href="#ma56d5c67ca" y="49.756019"/>
     <use style="fill:#9467bd;stroke:#9467bd;" x="189.469725" xlink:href="#ma56d5c67ca" y="49.410238"/>
     <use style="fill:#9467bd;stroke:#9467bd;" x="194.940304" xlink:href="#ma56d5c67ca" y="47.775715"/>
     <use style="fill:#9467bd;stroke:#9467bd;" x="200.410883" xlink:href="#ma56d5c67ca" y="46.514458"/>
     <use style="fill:#9467bd;stroke:#9467bd;" x="205.881462" xlink:href="#ma56d5c67ca" y="46.499358"/>
     <use style="fill:#9467bd;stroke:#9467bd;" x="211.352041" xlink:href="#ma56d5c67ca" y="43.826892"/>
     <use style="fill:#9467bd;stroke:#9467bd;" x="216.82262" xlink:href="#ma56d5c67ca" y="42.45507"/>
     <use style="fill:#9467bd;stroke:#9467bd;" x="222.293198" xlink:href="#ma56d5c67ca" y="41.216122"/>
    </g>
   </g>
   <g id="PathCollection_6">
    <defs>
     <path d="M 0 0.707107 
C 0.187527 0.707107 0.367398 0.632602 0.5 0.5 
C 0.632602 0.367398 0.707107 0.187527 0.707107 0 
C 0.707107 -0.187527 0.632602 -0.367398 0.5 -0.5 
C 0.367398 -0.632602 0.187527 -0.707107 0 -0.707107 
C -0.187527 -0.707107 -0.367398 -0.632602 -0.5 -0.5 
C -0.632602 -0.367398 -0.707107 -0.187527 -0.707107 0 
C -0.707107 0.187527 -0.632602 0.367398 -0.5 0.5 
C -0.367398 0.632602 -0.187527 0.707107 0 0.707107 
z
" id="m493b2d40c0" style="stroke:#8c564b;"/>
    </defs>
    <g clip-path="url(#pafddf7640d)">
     <use style="fill:#8c564b;stroke:#8c564b;" x="53.79937" xlink:href="#m493b2d40c0" y="99.500252"/>
     <use style="fill:#8c564b;stroke:#8c564b;" x="60.364064" xlink:href="#m493b2d40c0" y="95.757319"/>
     <use style="fill:#8c564b;stroke:#8c564b;" x="66.928759" xlink:href="#m493b2d40c0" y="84.477714"/>
     <use style="fill:#8c564b;stroke:#8c564b;" x="73.493454" xlink:href="#m493b2d40c0" y="76.910709"/>
     <use style="fill:#8c564b;stroke:#8c564b;" x="80.058148" xlink:href="#m493b2d40c0" y="72.433405"/>
     <use style="fill:#8c564b;stroke:#8c564b;" x="86.622843" xlink:href="#m493b2d40c0" y="64.468937"/>
     <use style="fill:#8c564b;stroke:#8c564b;" x="93.187538" xlink:href="#m493b2d40c0" y="59.33701"/>
     <use style="fill:#8c564b;stroke:#8c564b;" x="99.752232" xlink:href="#m493b2d40c0" y="59.251436"/>
     <use style="fill:#8c564b;stroke:#8c564b;" x="106.316927" xlink:href="#m493b2d40c0" y="59.717415"/>
     <use style="fill:#8c564b;stroke:#8c564b;" x="112.881621" xlink:href="#m493b2d40c0" y="55.345607"/>
     <use style="fill:#8c564b;stroke:#8c564b;" x="119.446316" xlink:href="#m493b2d40c0" y="54.142065"/>
     <use style="fill:#8c564b;stroke:#8c564b;" x="126.011011" xlink:href="#m493b2d40c0" y="53.329583"/>
     <use style="fill:#8c564b;stroke:#8c564b;" x="132.575705" xlink:href="#m493b2d40c0" y="48.51277"/>
     <use style="fill:#8c564b;stroke:#8c564b;" x="139.1404" xlink:href="#m493b2d40c0" y="46.700439"/>
     <use style="fill:#8c564b;stroke:#8c564b;" x="145.705095" xlink:href="#m493b2d40c0" y="50.9586"/>
     <use style="fill:#8c564b;stroke:#8c564b;" x="152.269789" xlink:href="#m493b2d40c0" y="50.626769"/>
     <use style="fill:#8c564b;stroke:#8c564b;" x="158.834484" xlink:href="#m493b2d40c0" y="48.87619"/>
     <use style="fill:#8c564b;stroke:#8c564b;" x="165.399178" xlink:href="#m493b2d40c0" y="49.785689"/>
     <use style="fill:#8c564b;stroke:#8c564b;" x="171.963873" xlink:href="#m493b2d40c0" y="50.115724"/>
     <use style="fill:#8c564b;stroke:#8c564b;" x="178.528568" xlink:href="#m493b2d40c0" y="49.066232"/>
     <use style="fill:#8c564b;stroke:#8c564b;" x="185.093262" xlink:href="#m493b2d40c0" y="48.69056"/>
     <use style="fill:#8c564b;stroke:#8c564b;" x="191.657957" xlink:href="#m493b2d40c0" y="47.888346"/>
     <use style="fill:#8c564b;stroke:#8c564b;" x="198.222651" xlink:href="#m493b2d40c0" y="46.94874"/>
     <use style="fill:#8c564b;stroke:#8c564b;" x="204.787346" xlink:href="#m493b2d40c0" y="46.051616"/>
     <use style="fill:#8c564b;stroke:#8c564b;" x="211.352041" xlink:href="#m493b2d40c0" y="42.748995"/>
     <use style="fill:#8c564b;stroke:#8c564b;" x="217.916735" xlink:href="#m493b2d40c0" y="41.803484"/>
     <use style="fill:#8c564b;stroke:#8c564b;" x="224.48143" xlink:href="#m493b2d40c0" y="41.738482"/>
     <use style="fill:#8c564b;stroke:#8c564b;" x="231.046125" xlink:href="#m493b2d40c0" y="41.177169"/>
     <use style="fill:#8c564b;stroke:#8c564b;" x="237.610819" xlink:href="#m493b2d40c0" y="41.709667"/>
     <use style="fill:#8c564b;stroke:#8c564b;" x="244.175514" xlink:href="#m493b2d40c0" y="42.061321"/>
     <use style="fill:#8c564b;stroke:#8c564b;" x="250.740208" xlink:href="#m493b2d40c0" y="41.491977"/>
     <use style="fill:#8c564b;stroke:#8c564b;" x="257.304903" xlink:href="#m493b2d40c0" y="41.314249"/>
    </g>
   </g>
   <g id="PathCollection_7">
    <defs>
     <path d="M 0 0.707107 
C 0.187527 0.707107 0.367398 0.632602 0.5 0.5 
C 0.632602 0.367398 0.707107 0.187527 0.707107 0 
C 0.707107 -0.187527 0.632602 -0.367398 0.5 -0.5 
C 0.367398 -0.632602 0.187527 -0.707107 0 -0.707107 
C -0.187527 -0.707107 -0.367398 -0.632602 -0.5 -0.5 
C -0.632602 -0.367398 -0.707107 -0.187527 -0.707107 0 
C -0.707107 0.187527 -0.632602 0.367398 -0.5 0.5 
C -0.367398 0.632602 -0.187527 0.707107 0 0.707107 
z
" id="maf3e21d190" style="stroke:#e377c2;"/>
    </defs>
    <g clip-path="url(#pafddf7640d)">
     <use style="fill:#e377c2;stroke:#e377c2;" x="54.893486" xlink:href="#maf3e21d190" y="93.659632"/>
     <use style="fill:#e377c2;stroke:#e377c2;" x="62.552296" xlink:href="#maf3e21d190" y="91.208962"/>
     <use style="fill:#e377c2;stroke:#e377c2;" x="70.211106" xlink:href="#maf3e21d190" y="79.657358"/>
     <use style="fill:#e377c2;stroke:#e377c2;" x="77.869917" xlink:href="#maf3e21d190" y="73.779221"/>
     <use style="fill:#e377c2;stroke:#e377c2;" x="85.528727" xlink:href="#maf3e21d190" y="65.533171"/>
     <use style="fill:#e377c2;stroke:#e377c2;" x="93.187538" xlink:href="#maf3e21d190" y="60.5613"/>
     <use style="fill:#e377c2;stroke:#e377c2;" x="100.846348" xlink:href="#maf3e21d190" y="57.797208"/>
     <use style="fill:#e377c2;stroke:#e377c2;" x="108.505158" xlink:href="#maf3e21d190" y="57.704426"/>
     <use style="fill:#e377c2;stroke:#e377c2;" x="116.163969" xlink:href="#maf3e21d190" y="55.138293"/>
     <use style="fill:#e377c2;stroke:#e377c2;" x="123.822779" xlink:href="#maf3e21d190" y="52.959214"/>
     <use style="fill:#e377c2;stroke:#e377c2;" x="131.48159" xlink:href="#maf3e21d190" y="50.35862"/>
     <use style="fill:#e377c2;stroke:#e377c2;" x="139.1404" xlink:href="#maf3e21d190" y="50.586792"/>
     <use style="fill:#e377c2;stroke:#e377c2;" x="146.79921" xlink:href="#maf3e21d190" y="49.860555"/>
     <use style="fill:#e377c2;stroke:#e377c2;" x="154.458021" xlink:href="#maf3e21d190" y="47.150566"/>
     <use style="fill:#e377c2;stroke:#e377c2;" x="162.116831" xlink:href="#maf3e21d190" y="49.599685"/>
     <use style="fill:#e377c2;stroke:#e377c2;" x="169.775641" xlink:href="#maf3e21d190" y="50.434387"/>
     <use style="fill:#e377c2;stroke:#e377c2;" x="177.434452" xlink:href="#maf3e21d190" y="48.362152"/>
     <use style="fill:#e377c2;stroke:#e377c2;" x="185.093262" xlink:href="#maf3e21d190" y="45.545216"/>
     <use style="fill:#e377c2;stroke:#e377c2;" x="192.752073" xlink:href="#maf3e21d190" y="46.940656"/>
     <use style="fill:#e377c2;stroke:#e377c2;" x="200.410883" xlink:href="#maf3e21d190" y="45.220723"/>
     <use style="fill:#e377c2;stroke:#e377c2;" x="208.069693" xlink:href="#maf3e21d190" y="44.827629"/>
     <use style="fill:#e377c2;stroke:#e377c2;" x="215.728504" xlink:href="#maf3e21d190" y="42.050663"/>
     <use style="fill:#e377c2;stroke:#e377c2;" x="223.387314" xlink:href="#maf3e21d190" y="41.316732"/>
     <use style="fill:#e377c2;stroke:#e377c2;" x="231.046125" xlink:href="#maf3e21d190" y="41.513443"/>
     <use style="fill:#e377c2;stroke:#e377c2;" x="238.704935" xlink:href="#maf3e21d190" y="42.47179"/>
     <use style="fill:#e377c2;stroke:#e377c2;" x="246.363745" xlink:href="#maf3e21d190" y="42.128106"/>
     <use style="fill:#e377c2;stroke:#e377c2;" x="254.022556" xlink:href="#maf3e21d190" y="41.553057"/>
     <use style="fill:#e377c2;stroke:#e377c2;" x="261.681366" xlink:href="#maf3e21d190" y="42.180921"/>
     <use style="fill:#e377c2;stroke:#e377c2;" x="269.340177" xlink:href="#maf3e21d190" y="43.649943"/>
     <use style="fill:#e377c2;stroke:#e377c2;" x="276.998987" xlink:href="#maf3e21d190" y="43.188237"/>
     <use style="fill:#e377c2;stroke:#e377c2;" x="284.657797" xlink:href="#maf3e21d190" y="42.918256"/>
     <use style="fill:#e377c2;stroke:#e377c2;" x="292.316608" xlink:href="#maf3e21d190" y="31.631285"/>
    </g>
   </g>
   <g id="PathCollection_8">
    <defs>
     <path d="M 0 0.707107 
C 0.187527 0.707107 0.367398 0.632602 0.5 0.5 
C 0.632602 0.367398 0.707107 0.187527 0.707107 0 
C 0.707107 -0.187527 0.632602 -0.367398 0.5 -0.5 
C 0.367398 -0.632602 0.187527 -0.707107 0 -0.707107 
C -0.187527 -0.707107 -0.367398 -0.632602 -0.5 -0.5 
C -0.632602 -0.367398 -0.707107 -0.187527 -0.707107 0 
C -0.707107 0.187527 -0.632602 0.367398 -0.5 0.5 
C -0.367398 0.632602 -0.187527 0.707107 0 0.707107 
z
" id="m0a768e621a" style="stroke:#7f7f7f;"/>
    </defs>
    <g clip-path="url(#pafddf7640d)">
     <use style="fill:#7f7f7f;stroke:#7f7f7f;" x="55.987601" xlink:href="#m0a768e621a" y="77.139162"/>
     <use style="fill:#7f7f7f;stroke:#7f7f7f;" x="64.740528" xlink:href="#m0a768e621a" y="73.116627"/>
     <use style="fill:#7f7f7f;stroke:#7f7f7f;" x="73.493454" xlink:href="#m0a768e621a" y="60.694743"/>
     <use style="fill:#7f7f7f;stroke:#7f7f7f;" x="82.24638" xlink:href="#m0a768e621a" y="53.842873"/>
     <use style="fill:#7f7f7f;stroke:#7f7f7f;" x="90.999306" xlink:href="#m0a768e621a" y="47.590425"/>
     <use style="fill:#7f7f7f;stroke:#7f7f7f;" x="99.752232" xlink:href="#m0a768e621a" y="44.63668"/>
     <use style="fill:#7f7f7f;stroke:#7f7f7f;" x="108.505158" xlink:href="#m0a768e621a" y="41.664364"/>
     <use style="fill:#7f7f7f;stroke:#7f7f7f;" x="117.258084" xlink:href="#m0a768e621a" y="42.630661"/>
     <use style="fill:#7f7f7f;stroke:#7f7f7f;" x="126.011011" xlink:href="#m0a768e621a" y="39.779735"/>
     <use style="fill:#7f7f7f;stroke:#7f7f7f;" x="134.763937" xlink:href="#m0a768e621a" y="37.959392"/>
     <use style="fill:#7f7f7f;stroke:#7f7f7f;" x="143.516863" xlink:href="#m0a768e621a" y="36.121509"/>
     <use style="fill:#7f7f7f;stroke:#7f7f7f;" x="152.269789" xlink:href="#m0a768e621a" y="37.844544"/>
     <use style="fill:#7f7f7f;stroke:#7f7f7f;" x="161.022715" xlink:href="#m0a768e621a" y="37.709627"/>
     <use style="fill:#7f7f7f;stroke:#7f7f7f;" x="169.775641" xlink:href="#m0a768e621a" y="34.889505"/>
     <use style="fill:#7f7f7f;stroke:#7f7f7f;" x="178.528568" xlink:href="#m0a768e621a" y="33.888588"/>
     <use style="fill:#7f7f7f;stroke:#7f7f7f;" x="187.281494" xlink:href="#m0a768e621a" y="40.782001"/>
     <use style="fill:#7f7f7f;stroke:#7f7f7f;" x="196.03442" xlink:href="#m0a768e621a" y="35.521816"/>
     <use style="fill:#7f7f7f;stroke:#7f7f7f;" x="204.787346" xlink:href="#m0a768e621a" y="34.283007"/>
     <use style="fill:#7f7f7f;stroke:#7f7f7f;" x="213.540272" xlink:href="#m0a768e621a" y="32.347869"/>
     <use style="fill:#7f7f7f;stroke:#7f7f7f;" x="222.293198" xlink:href="#m0a768e621a" y="32.447105"/>
     <use style="fill:#7f7f7f;stroke:#7f7f7f;" x="231.046125" xlink:href="#m0a768e621a" y="31.89776"/>
     <use style="fill:#7f7f7f;stroke:#7f7f7f;" x="239.799051" xlink:href="#m0a768e621a" y="32.171262"/>
     <use style="fill:#7f7f7f;stroke:#7f7f7f;" x="248.551977" xlink:href="#m0a768e621a" y="31.959492"/>
     <use style="fill:#7f7f7f;stroke:#7f7f7f;" x="257.304903" xlink:href="#m0a768e621a" y="31.694608"/>
     <use style="fill:#7f7f7f;stroke:#7f7f7f;" x="266.057829" xlink:href="#m0a768e621a" y="32.176816"/>
     <use style="fill:#7f7f7f;stroke:#7f7f7f;" x="274.810755" xlink:href="#m0a768e621a" y="31.600071"/>
     <use style="fill:#7f7f7f;stroke:#7f7f7f;" x="283.563682" xlink:href="#m0a768e621a" y="31.4653"/>
     <use style="fill:#7f7f7f;stroke:#7f7f7f;" x="292.316608" xlink:href="#m0a768e621a" y="31.864323"/>
     <use style="fill:#7f7f7f;stroke:#7f7f7f;" x="301.069534" xlink:href="#m0a768e621a" y="31.4779"/>
     <use style="fill:#7f7f7f;stroke:#7f7f7f;" x="309.82246" xlink:href="#m0a768e621a" y="31.355085"/>
     <use style="fill:#7f7f7f;stroke:#7f7f7f;" x="318.575386" xlink:href="#m0a768e621a" y="31.78439"/>
     <use style="fill:#7f7f7f;stroke:#7f7f7f;" x="327.328312" xlink:href="#m0a768e621a" y="31.692746"/>
    </g>
   </g>
   <g id="matplotlib.axis_1">
    <g id="xtick_1">
     <g id="line2d_1">
      <path clip-path="url(#pafddf7640d)" d="M 47.234675 171.24375 
L 47.234675 22.318125 
" style="fill:none;stroke:#b0b0b0;stroke-linecap:square;stroke-width:0.8;"/>
     </g>
     <g id="line2d_2">
      <defs>
       <path d="M 0 0 
L 0 3.5 
" id="m6dacbecae3" style="stroke:#000000;stroke-width:0.8;"/>
      </defs>
      <g>
       <use style="stroke:#000000;stroke-width:0.8;" x="47.234675" xlink:href="#m6dacbecae3" y="171.24375"/>
      </g>
     </g>
     <g id="text_1">
      <!-- 0 -->
      <defs>
       <path d="M 31.78125 66.40625 
Q 24.171875 66.40625 20.328125 58.90625 
Q 16.5 51.421875 16.5 36.375 
Q 16.5 21.390625 20.328125 13.890625 
Q 24.171875 6.390625 31.78125 6.390625 
Q 39.453125 6.390625 43.28125 13.890625 
Q 47.125 21.390625 47.125 36.375 
Q 47.125 51.421875 43.28125 58.90625 
Q 39.453125 66.40625 31.78125 66.40625 
z
M 31.78125 74.21875 
Q 44.046875 74.21875 50.515625 64.515625 
Q 56.984375 54.828125 56.984375 36.375 
Q 56.984375 17.96875 50.515625 8.265625 
Q 44.046875 -1.421875 31.78125 -1.421875 
Q 19.53125 -1.421875 13.0625 8.265625 
Q 6.59375 17.96875 6.59375 36.375 
Q 6.59375 54.828125 13.0625 64.515625 
Q 19.53125 74.21875 31.78125 74.21875 
z
" id="DejaVuSans-30"/>
      </defs>
      <g transform="translate(44.053425 185.842187)scale(0.1 -0.1)">
       <use xlink:href="#DejaVuSans-30"/>
      </g>
     </g>
    </g>
    <g id="xtick_2">
     <g id="line2d_3">
      <path clip-path="url(#pafddf7640d)" d="M 115.616911 171.24375 
L 115.616911 22.318125 
" style="fill:none;stroke:#b0b0b0;stroke-linecap:square;stroke-width:0.8;"/>
     </g>
     <g id="line2d_4">
      <g>
       <use style="stroke:#000000;stroke-width:0.8;" x="115.616911" xlink:href="#m6dacbecae3" y="171.24375"/>
      </g>
     </g>
     <g id="text_2">
      <!-- 2000 -->
      <defs>
       <path d="M 19.1875 8.296875 
L 53.609375 8.296875 
L 53.609375 0 
L 7.328125 0 
L 7.328125 8.296875 
Q 12.9375 14.109375 22.625 23.890625 
Q 32.328125 33.6875 34.8125 36.53125 
Q 39.546875 41.84375 41.421875 45.53125 
Q 43.3125 49.21875 43.3125 52.78125 
Q 43.3125 58.59375 39.234375 62.25 
Q 35.15625 65.921875 28.609375 65.921875 
Q 23.96875 65.921875 18.8125 64.3125 
Q 13.671875 62.703125 7.8125 59.421875 
L 7.8125 69.390625 
Q 13.765625 71.78125 18.9375 73 
Q 24.125 74.21875 28.421875 74.21875 
Q 39.75 74.21875 46.484375 68.546875 
Q 53.21875 62.890625 53.21875 53.421875 
Q 53.21875 48.921875 51.53125 44.890625 
Q 49.859375 40.875 45.40625 35.40625 
Q 44.1875 33.984375 37.640625 27.21875 
Q 31.109375 20.453125 19.1875 8.296875 
z
" id="DejaVuSans-32"/>
      </defs>
      <g transform="translate(102.891911 185.842187)scale(0.1 -0.1)">
       <use xlink:href="#DejaVuSans-32"/>
       <use x="63.623047" xlink:href="#DejaVuSans-30"/>
       <use x="127.246094" xlink:href="#DejaVuSans-30"/>
       <use x="190.869141" xlink:href="#DejaVuSans-30"/>
      </g>
     </g>
    </g>
    <g id="xtick_3">
     <g id="line2d_5">
      <path clip-path="url(#pafddf7640d)" d="M 183.999146 171.24375 
L 183.999146 22.318125 
" style="fill:none;stroke:#b0b0b0;stroke-linecap:square;stroke-width:0.8;"/>
     </g>
     <g id="line2d_6">
      <g>
       <use style="stroke:#000000;stroke-width:0.8;" x="183.999146" xlink:href="#m6dacbecae3" y="171.24375"/>
      </g>
     </g>
     <g id="text_3">
      <!-- 4000 -->
      <defs>
       <path d="M 37.796875 64.3125 
L 12.890625 25.390625 
L 37.796875 25.390625 
z
M 35.203125 72.90625 
L 47.609375 72.90625 
L 47.609375 25.390625 
L 58.015625 25.390625 
L 58.015625 17.1875 
L 47.609375 17.1875 
L 47.609375 0 
L 37.796875 0 
L 37.796875 17.1875 
L 4.890625 17.1875 
L 4.890625 26.703125 
z
" id="DejaVuSans-34"/>
      </defs>
      <g transform="translate(171.274146 185.842187)scale(0.1 -0.1)">
       <use xlink:href="#DejaVuSans-34"/>
       <use x="63.623047" xlink:href="#DejaVuSans-30"/>
       <use x="127.246094" xlink:href="#DejaVuSans-30"/>
       <use x="190.869141" xlink:href="#DejaVuSans-30"/>
      </g>
     </g>
    </g>
    <g id="xtick_4">
     <g id="line2d_7">
      <path clip-path="url(#pafddf7640d)" d="M 252.381382 171.24375 
L 252.381382 22.318125 
" style="fill:none;stroke:#b0b0b0;stroke-linecap:square;stroke-width:0.8;"/>
     </g>
     <g id="line2d_8">
      <g>
       <use style="stroke:#000000;stroke-width:0.8;" x="252.381382" xlink:href="#m6dacbecae3" y="171.24375"/>
      </g>
     </g>
     <g id="text_4">
      <!-- 6000 -->
      <defs>
       <path d="M 33.015625 40.375 
Q 26.375 40.375 22.484375 35.828125 
Q 18.609375 31.296875 18.609375 23.390625 
Q 18.609375 15.53125 22.484375 10.953125 
Q 26.375 6.390625 33.015625 6.390625 
Q 39.65625 6.390625 43.53125 10.953125 
Q 47.40625 15.53125 47.40625 23.390625 
Q 47.40625 31.296875 43.53125 35.828125 
Q 39.65625 40.375 33.015625 40.375 
z
M 52.59375 71.296875 
L 52.59375 62.3125 
Q 48.875 64.0625 45.09375 64.984375 
Q 41.3125 65.921875 37.59375 65.921875 
Q 27.828125 65.921875 22.671875 59.328125 
Q 17.53125 52.734375 16.796875 39.40625 
Q 19.671875 43.65625 24.015625 45.921875 
Q 28.375 48.1875 33.59375 48.1875 
Q 44.578125 48.1875 50.953125 41.515625 
Q 57.328125 34.859375 57.328125 23.390625 
Q 57.328125 12.15625 50.6875 5.359375 
Q 44.046875 -1.421875 33.015625 -1.421875 
Q 20.359375 -1.421875 13.671875 8.265625 
Q 6.984375 17.96875 6.984375 36.375 
Q 6.984375 53.65625 15.1875 63.9375 
Q 23.390625 74.21875 37.203125 74.21875 
Q 40.921875 74.21875 44.703125 73.484375 
Q 48.484375 72.75 52.59375 71.296875 
z
" id="DejaVuSans-36"/>
      </defs>
      <g transform="translate(239.656382 185.842187)scale(0.1 -0.1)">
       <use xlink:href="#DejaVuSans-36"/>
       <use x="63.623047" xlink:href="#DejaVuSans-30"/>
       <use x="127.246094" xlink:href="#DejaVuSans-30"/>
       <use x="190.869141" xlink:href="#DejaVuSans-30"/>
      </g>
     </g>
    </g>
    <g id="xtick_5">
     <g id="line2d_9">
      <path clip-path="url(#pafddf7640d)" d="M 320.763618 171.24375 
L 320.763618 22.318125 
" style="fill:none;stroke:#b0b0b0;stroke-linecap:square;stroke-width:0.8;"/>
     </g>
     <g id="line2d_10">
      <g>
       <use style="stroke:#000000;stroke-width:0.8;" x="320.763618" xlink:href="#m6dacbecae3" y="171.24375"/>
      </g>
     </g>
     <g id="text_5">
      <!-- 8000 -->
      <defs>
       <path d="M 31.78125 34.625 
Q 24.75 34.625 20.71875 30.859375 
Q 16.703125 27.09375 16.703125 20.515625 
Q 16.703125 13.921875 20.71875 10.15625 
Q 24.75 6.390625 31.78125 6.390625 
Q 38.8125 6.390625 42.859375 10.171875 
Q 46.921875 13.96875 46.921875 20.515625 
Q 46.921875 27.09375 42.890625 30.859375 
Q 38.875 34.625 31.78125 34.625 
z
M 21.921875 38.8125 
Q 15.578125 40.375 12.03125 44.71875 
Q 8.5 49.078125 8.5 55.328125 
Q 8.5 64.0625 14.71875 69.140625 
Q 20.953125 74.21875 31.78125 74.21875 
Q 42.671875 74.21875 48.875 69.140625 
Q 55.078125 64.0625 55.078125 55.328125 
Q 55.078125 49.078125 51.53125 44.71875 
Q 48 40.375 41.703125 38.8125 
Q 48.828125 37.15625 52.796875 32.3125 
Q 56.78125 27.484375 56.78125 20.515625 
Q 56.78125 9.90625 50.3125 4.234375 
Q 43.84375 -1.421875 31.78125 -1.421875 
Q 19.734375 -1.421875 13.25 4.234375 
Q 6.78125 9.90625 6.78125 20.515625 
Q 6.78125 27.484375 10.78125 32.3125 
Q 14.796875 37.15625 21.921875 38.8125 
z
M 18.3125 54.390625 
Q 18.3125 48.734375 21.84375 45.5625 
Q 25.390625 42.390625 31.78125 42.390625 
Q 38.140625 42.390625 41.71875 45.5625 
Q 45.3125 48.734375 45.3125 54.390625 
Q 45.3125 60.0625 41.71875 63.234375 
Q 38.140625 66.40625 31.78125 66.40625 
Q 25.390625 66.40625 21.84375 63.234375 
Q 18.3125 60.0625 18.3125 54.390625 
z
" id="DejaVuSans-38"/>
      </defs>
      <g transform="translate(308.038618 185.842187)scale(0.1 -0.1)">
       <use xlink:href="#DejaVuSans-38"/>
       <use x="63.623047" xlink:href="#DejaVuSans-30"/>
       <use x="127.246094" xlink:href="#DejaVuSans-30"/>
       <use x="190.869141" xlink:href="#DejaVuSans-30"/>
      </g>
     </g>
    </g>
    <g id="text_6">
     <!-- Anzahl Threads -->
     <defs>
      <path d="M 34.1875 63.1875 
L 20.796875 26.90625 
L 47.609375 26.90625 
z
M 28.609375 72.90625 
L 39.796875 72.90625 
L 67.578125 0 
L 57.328125 0 
L 50.6875 18.703125 
L 17.828125 18.703125 
L 11.1875 0 
L 0.78125 0 
z
" id="DejaVuSans-41"/>
      <path d="M 54.890625 33.015625 
L 54.890625 0 
L 45.90625 0 
L 45.90625 32.71875 
Q 45.90625 40.484375 42.875 44.328125 
Q 39.84375 48.1875 33.796875 48.1875 
Q 26.515625 48.1875 22.3125 43.546875 
Q 18.109375 38.921875 18.109375 30.90625 
L 18.109375 0 
L 9.078125 0 
L 9.078125 54.6875 
L 18.109375 54.6875 
L 18.109375 46.1875 
Q 21.34375 51.125 25.703125 53.5625 
Q 30.078125 56 35.796875 56 
Q 45.21875 56 50.046875 50.171875 
Q 54.890625 44.34375 54.890625 33.015625 
z
" id="DejaVuSans-6e"/>
      <path d="M 5.515625 54.6875 
L 48.1875 54.6875 
L 48.1875 46.484375 
L 14.40625 7.171875 
L 48.1875 7.171875 
L 48.1875 0 
L 4.296875 0 
L 4.296875 8.203125 
L 38.09375 47.515625 
L 5.515625 47.515625 
z
" id="DejaVuSans-7a"/>
      <path d="M 34.28125 27.484375 
Q 23.390625 27.484375 19.1875 25 
Q 14.984375 22.515625 14.984375 16.5 
Q 14.984375 11.71875 18.140625 8.90625 
Q 21.296875 6.109375 26.703125 6.109375 
Q 34.1875 6.109375 38.703125 11.40625 
Q 43.21875 16.703125 43.21875 25.484375 
L 43.21875 27.484375 
z
M 52.203125 31.203125 
L 52.203125 0 
L 43.21875 0 
L 43.21875 8.296875 
Q 40.140625 3.328125 35.546875 0.953125 
Q 30.953125 -1.421875 24.3125 -1.421875 
Q 15.921875 -1.421875 10.953125 3.296875 
Q 6 8.015625 6 15.921875 
Q 6 25.140625 12.171875 29.828125 
Q 18.359375 34.515625 30.609375 34.515625 
L 43.21875 34.515625 
L 43.21875 35.40625 
Q 43.21875 41.609375 39.140625 45 
Q 35.0625 48.390625 27.6875 48.390625 
Q 23 48.390625 18.546875 47.265625 
Q 14.109375 46.140625 10.015625 43.890625 
L 10.015625 52.203125 
Q 14.9375 54.109375 19.578125 55.046875 
Q 24.21875 56 28.609375 56 
Q 40.484375 56 46.34375 49.84375 
Q 52.203125 43.703125 52.203125 31.203125 
z
" id="DejaVuSans-61"/>
      <path d="M 54.890625 33.015625 
L 54.890625 0 
L 45.90625 0 
L 45.90625 32.71875 
Q 45.90625 40.484375 42.875 44.328125 
Q 39.84375 48.1875 33.796875 48.1875 
Q 26.515625 48.1875 22.3125 43.546875 
Q 18.109375 38.921875 18.109375 30.90625 
L 18.109375 0 
L 9.078125 0 
L 9.078125 75.984375 
L 18.109375 75.984375 
L 18.109375 46.1875 
Q 21.34375 51.125 25.703125 53.5625 
Q 30.078125 56 35.796875 56 
Q 45.21875 56 50.046875 50.171875 
Q 54.890625 44.34375 54.890625 33.015625 
z
" id="DejaVuSans-68"/>
      <path d="M 9.421875 75.984375 
L 18.40625 75.984375 
L 18.40625 0 
L 9.421875 0 
z
" id="DejaVuSans-6c"/>
      <path id="DejaVuSans-20"/>
      <path d="M -0.296875 72.90625 
L 61.375 72.90625 
L 61.375 64.59375 
L 35.5 64.59375 
L 35.5 0 
L 25.59375 0 
L 25.59375 64.59375 
L -0.296875 64.59375 
z
" id="DejaVuSans-54"/>
      <path d="M 41.109375 46.296875 
Q 39.59375 47.171875 37.8125 47.578125 
Q 36.03125 48 33.890625 48 
Q 26.265625 48 22.1875 43.046875 
Q 18.109375 38.09375 18.109375 28.8125 
L 18.109375 0 
L 9.078125 0 
L 9.078125 54.6875 
L 18.109375 54.6875 
L 18.109375 46.1875 
Q 20.953125 51.171875 25.484375 53.578125 
Q 30.03125 56 36.53125 56 
Q 37.453125 56 38.578125 55.875 
Q 39.703125 55.765625 41.0625 55.515625 
z
" id="DejaVuSans-72"/>
      <path d="M 56.203125 29.59375 
L 56.203125 25.203125 
L 14.890625 25.203125 
Q 15.484375 15.921875 20.484375 11.0625 
Q 25.484375 6.203125 34.421875 6.203125 
Q 39.59375 6.203125 44.453125 7.46875 
Q 49.3125 8.734375 54.109375 11.28125 
L 54.109375 2.78125 
Q 49.265625 0.734375 44.1875 -0.34375 
Q 39.109375 -1.421875 33.890625 -1.421875 
Q 20.796875 -1.421875 13.15625 6.1875 
Q 5.515625 13.8125 5.515625 26.8125 
Q 5.515625 40.234375 12.765625 48.109375 
Q 20.015625 56 32.328125 56 
Q 43.359375 56 49.78125 48.890625 
Q 56.203125 41.796875 56.203125 29.59375 
z
M 47.21875 32.234375 
Q 47.125 39.59375 43.09375 43.984375 
Q 39.0625 48.390625 32.421875 48.390625 
Q 24.90625 48.390625 20.390625 44.140625 
Q 15.875 39.890625 15.1875 32.171875 
z
" id="DejaVuSans-65"/>
      <path d="M 45.40625 46.390625 
L 45.40625 75.984375 
L 54.390625 75.984375 
L 54.390625 0 
L 45.40625 0 
L 45.40625 8.203125 
Q 42.578125 3.328125 38.25 0.953125 
Q 33.9375 -1.421875 27.875 -1.421875 
Q 17.96875 -1.421875 11.734375 6.484375 
Q 5.515625 14.40625 5.515625 27.296875 
Q 5.515625 40.1875 11.734375 48.09375 
Q 17.96875 56 27.875 56 
Q 33.9375 56 38.25 53.625 
Q 42.578125 51.265625 45.40625 46.390625 
z
M 14.796875 27.296875 
Q 14.796875 17.390625 18.875 11.75 
Q 22.953125 6.109375 30.078125 6.109375 
Q 37.203125 6.109375 41.296875 11.75 
Q 45.40625 17.390625 45.40625 27.296875 
Q 45.40625 37.203125 41.296875 42.84375 
Q 37.203125 48.484375 30.078125 48.484375 
Q 22.953125 48.484375 18.875 42.84375 
Q 14.796875 37.203125 14.796875 27.296875 
z
" id="DejaVuSans-64"/>
      <path d="M 44.28125 53.078125 
L 44.28125 44.578125 
Q 40.484375 46.53125 36.375 47.5 
Q 32.28125 48.484375 27.875 48.484375 
Q 21.1875 48.484375 17.84375 46.4375 
Q 14.5 44.390625 14.5 40.28125 
Q 14.5 37.15625 16.890625 35.375 
Q 19.28125 33.59375 26.515625 31.984375 
L 29.59375 31.296875 
Q 39.15625 29.25 43.1875 25.515625 
Q 47.21875 21.78125 47.21875 15.09375 
Q 47.21875 7.46875 41.1875 3.015625 
Q 35.15625 -1.421875 24.609375 -1.421875 
Q 20.21875 -1.421875 15.453125 -0.5625 
Q 10.6875 0.296875 5.421875 2 
L 5.421875 11.28125 
Q 10.40625 8.6875 15.234375 7.390625 
Q 20.0625 6.109375 24.8125 6.109375 
Q 31.15625 6.109375 34.5625 8.28125 
Q 37.984375 10.453125 37.984375 14.40625 
Q 37.984375 18.0625 35.515625 20.015625 
Q 33.0625 21.96875 24.703125 23.78125 
L 21.578125 24.515625 
Q 13.234375 26.265625 9.515625 29.90625 
Q 5.8125 33.546875 5.8125 39.890625 
Q 5.8125 47.609375 11.28125 51.796875 
Q 16.75 56 26.8125 56 
Q 31.78125 56 36.171875 55.265625 
Q 40.578125 54.546875 44.28125 53.078125 
z
" id="DejaVuSans-73"/>
     </defs>
     <g transform="translate(149.55 199.520312)scale(0.1 -0.1)">
      <use xlink:href="#DejaVuSans-41"/>
      <use x="68.408203" xlink:href="#DejaVuSans-6e"/>
      <use x="131.787109" xlink:href="#DejaVuSans-7a"/>
      <use x="184.277344" xlink:href="#DejaVuSans-61"/>
      <use x="245.556641" xlink:href="#DejaVuSans-68"/>
      <use x="308.935547" xlink:href="#DejaVuSans-6c"/>
      <use x="336.71875" xlink:href="#DejaVuSans-20"/>
      <use x="368.505859" xlink:href="#DejaVuSans-54"/>
      <use x="429.589844" xlink:href="#DejaVuSans-68"/>
      <use x="492.96875" xlink:href="#DejaVuSans-72"/>
      <use x="534.050781" xlink:href="#DejaVuSans-65"/>
      <use x="595.574219" xlink:href="#DejaVuSans-61"/>
      <use x="656.853516" xlink:href="#DejaVuSans-64"/>
      <use x="720.330078" xlink:href="#DejaVuSans-73"/>
     </g>
    </g>
   </g>
   <g id="matplotlib.axis_2">
    <g id="ytick_1">
     <g id="line2d_11">
      <path clip-path="url(#pafddf7640d)" d="M 34.240625 171.722493 
L 342.1 171.722493 
" style="fill:none;stroke:#b0b0b0;stroke-linecap:square;stroke-width:0.8;"/>
     </g>
     <g id="line2d_12">
      <defs>
       <path d="M 0 0 
L -3.5 0 
" id="m11d5a17319" style="stroke:#000000;stroke-width:0.8;"/>
      </defs>
      <g>
       <use style="stroke:#000000;stroke-width:0.8;" x="34.240625" xlink:href="#m11d5a17319" y="171.722493"/>
      </g>
     </g>
     <g id="text_7">
      <!-- 1 -->
      <defs>
       <path d="M 12.40625 8.296875 
L 28.515625 8.296875 
L 28.515625 63.921875 
L 10.984375 60.40625 
L 10.984375 69.390625 
L 28.421875 72.90625 
L 38.28125 72.90625 
L 38.28125 8.296875 
L 54.390625 8.296875 
L 54.390625 0 
L 12.40625 0 
z
" id="DejaVuSans-31"/>
      </defs>
      <g transform="translate(20.878125 175.521712)scale(0.1 -0.1)">
       <use xlink:href="#DejaVuSans-31"/>
      </g>
     </g>
    </g>
    <g id="ytick_2">
     <g id="line2d_13">
      <path clip-path="url(#pafddf7640d)" d="M 34.240625 143.350482 
L 342.1 143.350482 
" style="fill:none;stroke:#b0b0b0;stroke-linecap:square;stroke-width:0.8;"/>
     </g>
     <g id="line2d_14">
      <g>
       <use style="stroke:#000000;stroke-width:0.8;" x="34.240625" xlink:href="#m11d5a17319" y="143.350482"/>
      </g>
     </g>
     <g id="text_8">
      <!-- 2 -->
      <g transform="translate(20.878125 147.149701)scale(0.1 -0.1)">
       <use xlink:href="#DejaVuSans-32"/>
      </g>
     </g>
    </g>
    <g id="ytick_3">
     <g id="line2d_15">
      <path clip-path="url(#pafddf7640d)" d="M 34.240625 114.978471 
L 342.1 114.978471 
" style="fill:none;stroke:#b0b0b0;stroke-linecap:square;stroke-width:0.8;"/>
     </g>
     <g id="line2d_16">
      <g>
       <use style="stroke:#000000;stroke-width:0.8;" x="34.240625" xlink:href="#m11d5a17319" y="114.978471"/>
      </g>
     </g>
     <g id="text_9">
      <!-- 3 -->
      <defs>
       <path d="M 40.578125 39.3125 
Q 47.65625 37.796875 51.625 33 
Q 55.609375 28.21875 55.609375 21.1875 
Q 55.609375 10.40625 48.1875 4.484375 
Q 40.765625 -1.421875 27.09375 -1.421875 
Q 22.515625 -1.421875 17.65625 -0.515625 
Q 12.796875 0.390625 7.625 2.203125 
L 7.625 11.71875 
Q 11.71875 9.328125 16.59375 8.109375 
Q 21.484375 6.890625 26.8125 6.890625 
Q 36.078125 6.890625 40.9375 10.546875 
Q 45.796875 14.203125 45.796875 21.1875 
Q 45.796875 27.640625 41.28125 31.265625 
Q 36.765625 34.90625 28.71875 34.90625 
L 20.21875 34.90625 
L 20.21875 43.015625 
L 29.109375 43.015625 
Q 36.375 43.015625 40.234375 45.921875 
Q 44.09375 48.828125 44.09375 54.296875 
Q 44.09375 59.90625 40.109375 62.90625 
Q 36.140625 65.921875 28.71875 65.921875 
Q 24.65625 65.921875 20.015625 65.03125 
Q 15.375 64.15625 9.8125 62.3125 
L 9.8125 71.09375 
Q 15.4375 72.65625 20.34375 73.4375 
Q 25.25 74.21875 29.59375 74.21875 
Q 40.828125 74.21875 47.359375 69.109375 
Q 53.90625 64.015625 53.90625 55.328125 
Q 53.90625 49.265625 50.4375 45.09375 
Q 46.96875 40.921875 40.578125 39.3125 
z
" id="DejaVuSans-33"/>
      </defs>
      <g transform="translate(20.878125 118.77769)scale(0.1 -0.1)">
       <use xlink:href="#DejaVuSans-33"/>
      </g>
     </g>
    </g>
    <g id="ytick_4">
     <g id="line2d_17">
      <path clip-path="url(#pafddf7640d)" d="M 34.240625 86.60646 
L 342.1 86.60646 
" style="fill:none;stroke:#b0b0b0;stroke-linecap:square;stroke-width:0.8;"/>
     </g>
     <g id="line2d_18">
      <g>
       <use style="stroke:#000000;stroke-width:0.8;" x="34.240625" xlink:href="#m11d5a17319" y="86.60646"/>
      </g>
     </g>
     <g id="text_10">
      <!-- 4 -->
      <g transform="translate(20.878125 90.405679)scale(0.1 -0.1)">
       <use xlink:href="#DejaVuSans-34"/>
      </g>
     </g>
    </g>
    <g id="ytick_5">
     <g id="line2d_19">
      <path clip-path="url(#pafddf7640d)" d="M 34.240625 58.234449 
L 342.1 58.234449 
" style="fill:none;stroke:#b0b0b0;stroke-linecap:square;stroke-width:0.8;"/>
     </g>
     <g id="line2d_20">
      <g>
       <use style="stroke:#000000;stroke-width:0.8;" x="34.240625" xlink:href="#m11d5a17319" y="58.234449"/>
      </g>
     </g>
     <g id="text_11">
      <!-- 5 -->
      <defs>
       <path d="M 10.796875 72.90625 
L 49.515625 72.90625 
L 49.515625 64.59375 
L 19.828125 64.59375 
L 19.828125 46.734375 
Q 21.96875 47.46875 24.109375 47.828125 
Q 26.265625 48.1875 28.421875 48.1875 
Q 40.625 48.1875 47.75 41.5 
Q 54.890625 34.8125 54.890625 23.390625 
Q 54.890625 11.625 47.5625 5.09375 
Q 40.234375 -1.421875 26.90625 -1.421875 
Q 22.3125 -1.421875 17.546875 -0.640625 
Q 12.796875 0.140625 7.71875 1.703125 
L 7.71875 11.625 
Q 12.109375 9.234375 16.796875 8.0625 
Q 21.484375 6.890625 26.703125 6.890625 
Q 35.15625 6.890625 40.078125 11.328125 
Q 45.015625 15.765625 45.015625 23.390625 
Q 45.015625 31 40.078125 35.4375 
Q 35.15625 39.890625 26.703125 39.890625 
Q 22.75 39.890625 18.8125 39.015625 
Q 14.890625 38.140625 10.796875 36.28125 
z
" id="DejaVuSans-35"/>
      </defs>
      <g transform="translate(20.878125 62.033668)scale(0.1 -0.1)">
       <use xlink:href="#DejaVuSans-35"/>
      </g>
     </g>
    </g>
    <g id="ytick_6">
     <g id="line2d_21">
      <path clip-path="url(#pafddf7640d)" d="M 34.240625 29.862438 
L 342.1 29.862438 
" style="fill:none;stroke:#b0b0b0;stroke-linecap:square;stroke-width:0.8;"/>
     </g>
     <g id="line2d_22">
      <g>
       <use style="stroke:#000000;stroke-width:0.8;" x="34.240625" xlink:href="#m11d5a17319" y="29.862438"/>
      </g>
     </g>
     <g id="text_12">
      <!-- 6 -->
      <g transform="translate(20.878125 33.661657)scale(0.1 -0.1)">
       <use xlink:href="#DejaVuSans-36"/>
      </g>
     </g>
    </g>
    <g id="text_13">
     <!-- Datendurchsatz in GB/s -->
     <defs>
      <path d="M 19.671875 64.796875 
L 19.671875 8.109375 
L 31.59375 8.109375 
Q 46.6875 8.109375 53.6875 14.9375 
Q 60.6875 21.78125 60.6875 36.53125 
Q 60.6875 51.171875 53.6875 57.984375 
Q 46.6875 64.796875 31.59375 64.796875 
z
M 9.8125 72.90625 
L 30.078125 72.90625 
Q 51.265625 72.90625 61.171875 64.09375 
Q 71.09375 55.28125 71.09375 36.53125 
Q 71.09375 17.671875 61.125 8.828125 
Q 51.171875 0 30.078125 0 
L 9.8125 0 
z
" id="DejaVuSans-44"/>
      <path d="M 18.3125 70.21875 
L 18.3125 54.6875 
L 36.8125 54.6875 
L 36.8125 47.703125 
L 18.3125 47.703125 
L 18.3125 18.015625 
Q 18.3125 11.328125 20.140625 9.421875 
Q 21.96875 7.515625 27.59375 7.515625 
L 36.8125 7.515625 
L 36.8125 0 
L 27.59375 0 
Q 17.1875 0 13.234375 3.875 
Q 9.28125 7.765625 9.28125 18.015625 
L 9.28125 47.703125 
L 2.6875 47.703125 
L 2.6875 54.6875 
L 9.28125 54.6875 
L 9.28125 70.21875 
z
" id="DejaVuSans-74"/>
      <path d="M 8.5 21.578125 
L 8.5 54.6875 
L 17.484375 54.6875 
L 17.484375 21.921875 
Q 17.484375 14.15625 20.5 10.265625 
Q 23.53125 6.390625 29.59375 6.390625 
Q 36.859375 6.390625 41.078125 11.03125 
Q 45.3125 15.671875 45.3125 23.6875 
L 45.3125 54.6875 
L 54.296875 54.6875 
L 54.296875 0 
L 45.3125 0 
L 45.3125 8.40625 
Q 42.046875 3.421875 37.71875 1 
Q 33.40625 -1.421875 27.6875 -1.421875 
Q 18.265625 -1.421875 13.375 4.4375 
Q 8.5 10.296875 8.5 21.578125 
z
M 31.109375 56 
z
" id="DejaVuSans-75"/>
      <path d="M 48.78125 52.59375 
L 48.78125 44.1875 
Q 44.96875 46.296875 41.140625 47.34375 
Q 37.3125 48.390625 33.40625 48.390625 
Q 24.65625 48.390625 19.8125 42.84375 
Q 14.984375 37.3125 14.984375 27.296875 
Q 14.984375 17.28125 19.8125 11.734375 
Q 24.65625 6.203125 33.40625 6.203125 
Q 37.3125 6.203125 41.140625 7.25 
Q 44.96875 8.296875 48.78125 10.40625 
L 48.78125 2.09375 
Q 45.015625 0.34375 40.984375 -0.53125 
Q 36.96875 -1.421875 32.421875 -1.421875 
Q 20.0625 -1.421875 12.78125 6.34375 
Q 5.515625 14.109375 5.515625 27.296875 
Q 5.515625 40.671875 12.859375 48.328125 
Q 20.21875 56 33.015625 56 
Q 37.15625 56 41.109375 55.140625 
Q 45.0625 54.296875 48.78125 52.59375 
z
" id="DejaVuSans-63"/>
      <path d="M 9.421875 54.6875 
L 18.40625 54.6875 
L 18.40625 0 
L 9.421875 0 
z
M 9.421875 75.984375 
L 18.40625 75.984375 
L 18.40625 64.59375 
L 9.421875 64.59375 
z
" id="DejaVuSans-69"/>
      <path d="M 59.515625 10.40625 
L 59.515625 29.984375 
L 43.40625 29.984375 
L 43.40625 38.09375 
L 69.28125 38.09375 
L 69.28125 6.78125 
Q 63.578125 2.734375 56.6875 0.65625 
Q 49.8125 -1.421875 42 -1.421875 
Q 24.90625 -1.421875 15.25 8.5625 
Q 5.609375 18.5625 5.609375 36.375 
Q 5.609375 54.25 15.25 64.234375 
Q 24.90625 74.21875 42 74.21875 
Q 49.125 74.21875 55.546875 72.453125 
Q 61.96875 70.703125 67.390625 67.28125 
L 67.390625 56.78125 
Q 61.921875 61.421875 55.765625 63.765625 
Q 49.609375 66.109375 42.828125 66.109375 
Q 29.4375 66.109375 22.71875 58.640625 
Q 16.015625 51.171875 16.015625 36.375 
Q 16.015625 21.625 22.71875 14.15625 
Q 29.4375 6.6875 42.828125 6.6875 
Q 48.046875 6.6875 52.140625 7.59375 
Q 56.25 8.5 59.515625 10.40625 
z
" id="DejaVuSans-47"/>
      <path d="M 19.671875 34.8125 
L 19.671875 8.109375 
L 35.5 8.109375 
Q 43.453125 8.109375 47.28125 11.40625 
Q 51.125 14.703125 51.125 21.484375 
Q 51.125 28.328125 47.28125 31.5625 
Q 43.453125 34.8125 35.5 34.8125 
z
M 19.671875 64.796875 
L 19.671875 42.828125 
L 34.28125 42.828125 
Q 41.5 42.828125 45.03125 45.53125 
Q 48.578125 48.25 48.578125 53.8125 
Q 48.578125 59.328125 45.03125 62.0625 
Q 41.5 64.796875 34.28125 64.796875 
z
M 9.8125 72.90625 
L 35.015625 72.90625 
Q 46.296875 72.90625 52.390625 68.21875 
Q 58.5 63.53125 58.5 54.890625 
Q 58.5 48.1875 55.375 44.234375 
Q 52.25 40.28125 46.1875 39.3125 
Q 53.46875 37.75 57.5 32.78125 
Q 61.53125 27.828125 61.53125 20.40625 
Q 61.53125 10.640625 54.890625 5.3125 
Q 48.25 0 35.984375 0 
L 9.8125 0 
z
" id="DejaVuSans-42"/>
      <path d="M 25.390625 72.90625 
L 33.6875 72.90625 
L 8.296875 -9.28125 
L 0 -9.28125 
z
" id="DejaVuSans-2f"/>
     </defs>
     <g transform="translate(14.798438 155.798125)rotate(-90)scale(0.1 -0.1)">
      <use xlink:href="#DejaVuSans-44"/>
      <use x="77.001953" xlink:href="#DejaVuSans-61"/>
      <use x="138.28125" xlink:href="#DejaVuSans-74"/>
      <use x="177.490234" xlink:href="#DejaVuSans-65"/>
      <use x="239.013672" xlink:href="#DejaVuSans-6e"/>
      <use x="302.392578" xlink:href="#DejaVuSans-64"/>
      <use x="365.869141" xlink:href="#DejaVuSans-75"/>
      <use x="429.248047" xlink:href="#DejaVuSans-72"/>
      <use x="470.330078" xlink:href="#DejaVuSans-63"/>
      <use x="525.310547" xlink:href="#DejaVuSans-68"/>
      <use x="588.689453" xlink:href="#DejaVuSans-73"/>
      <use x="640.789062" xlink:href="#DejaVuSans-61"/>
      <use x="702.068359" xlink:href="#DejaVuSans-74"/>
      <use x="741.277344" xlink:href="#DejaVuSans-7a"/>
      <use x="793.767578" xlink:href="#DejaVuSans-20"/>
      <use x="825.554688" xlink:href="#DejaVuSans-69"/>
      <use x="853.337891" xlink:href="#DejaVuSans-6e"/>
      <use x="916.716797" xlink:href="#DejaVuSans-20"/>
      <use x="948.503906" xlink:href="#DejaVuSans-47"/>
      <use x="1025.994141" xlink:href="#DejaVuSans-42"/>
      <use x="1094.597656" xlink:href="#DejaVuSans-2f"/>
      <use x="1128.289062" xlink:href="#DejaVuSans-73"/>
     </g>
    </g>
   </g>
   <g id="line2d_23">
    <path clip-path="url(#pafddf7640d)" d="M 48.328791 164.021901 
L 49.422907 156.809482 
L 50.517023 146.146417 
L 51.611138 132.775554 
L 52.705254 125.020106 
L 53.79937 122.924682 
L 54.893486 118.023633 
L 55.987601 110.412235 
L 57.081717 106.044476 
L 58.175833 102.208074 
L 59.269949 99.08483 
L 60.364064 95.152962 
L 61.45818 92.696054 
L 62.552296 90.748962 
L 63.646412 88.088567 
L 64.740528 85.814844 
L 65.834643 84.020675 
L 66.928759 82.272119 
L 68.022875 81.075301 
L 69.116991 79.120753 
L 70.211106 78.253241 
L 71.305222 77.119309 
L 72.399338 76.324155 
L 73.493454 75.321449 
L 74.587569 74.551191 
L 75.681685 74.204897 
L 76.775801 73.312414 
L 77.869917 72.505852 
L 78.964033 72.004531 
L 80.058148 71.146266 
L 81.152264 69.731456 
L 82.24638 69.148696 
" style="fill:none;stroke:#1f77b4;stroke-linecap:square;stroke-width:1.5;"/>
   </g>
   <g id="line2d_24">
    <path clip-path="url(#pafddf7640d)" d="M 49.422907 144.818088 
L 51.611138 126.40514 
L 53.79937 120.358714 
L 55.987601 108.931772 
L 58.175833 95.113363 
L 60.364064 82.585706 
L 62.552296 75.956232 
L 64.740528 71.444948 
L 66.928759 67.12774 
L 69.116991 63.775569 
L 71.305222 60.46313 
L 73.493454 57.772278 
L 75.681685 55.838768 
L 77.869917 54.18855 
L 80.058148 52.325097 
L 82.24638 50.554867 
L 84.434611 49.075591 
L 86.622843 48.559141 
L 88.811074 47.003382 
L 90.999306 45.348168 
L 93.187538 44.972311 
L 95.375769 43.876173 
L 97.564001 43.079466 
L 99.752232 42.563893 
L 101.940464 41.607081 
L 104.128695 40.896473 
L 106.316927 40.801577 
L 108.505158 39.416147 
L 110.69339 39.375034 
L 112.881621 38.613415 
L 115.069853 37.927026 
L 117.258084 37.531992 
" style="fill:none;stroke:#ff7f0e;stroke-linecap:square;stroke-width:1.5;"/>
   </g>
   <g id="line2d_25">
    <path clip-path="url(#pafddf7640d)" d="M 50.517023 125.023898 
L 53.79937 104.877021 
L 57.081717 94.959386 
L 60.364064 82.818673 
L 63.646412 74.047594 
L 66.928759 67.827433 
L 70.211106 61.923207 
L 73.493454 58.376423 
L 76.775801 54.848716 
L 80.058148 51.706455 
L 83.340496 49.177337 
L 86.622843 47.154021 
L 89.90519 43.880179 
L 93.187538 42.967302 
L 96.469885 43.568757 
L 99.752232 39.843405 
L 103.034579 40.622715 
L 106.316927 40.540446 
L 109.599274 39.192953 
L 112.881621 38.064598 
L 116.163969 37.287434 
L 119.446316 35.795632 
L 122.728663 34.658041 
L 126.011011 33.732929 
L 129.293358 33.551489 
L 132.575705 31.996138 
L 135.858053 31.84667 
L 139.1404 30.884119 
L 142.422747 31.052656 
L 145.705095 30.376012 
L 148.987442 30.200437 
L 152.269789 29.73014 
" style="fill:none;stroke:#2ca02c;stroke-linecap:square;stroke-width:1.5;"/>
   </g>
   <g id="line2d_26">
    <path clip-path="url(#pafddf7640d)" d="M 51.611138 109.01599 
L 55.987601 96.637126 
L 60.364064 83.399977 
L 64.740528 72.434743 
L 69.116991 64.239105 
L 73.493454 58.502231 
L 77.869917 54.005584 
L 82.24638 50.799637 
L 86.622843 47.039916 
L 90.999306 55.24168 
L 95.375769 58.435402 
L 99.752232 54.851486 
L 104.128695 53.667836 
L 108.505158 51.154371 
L 112.881621 54.885409 
L 117.258084 52.549106 
L 121.634548 48.968459 
L 126.011011 49.571056 
L 130.387474 49.206863 
L 134.763937 47.354924 
L 139.1404 47.923319 
L 143.516863 47.67512 
L 147.893326 47.276773 
L 152.269789 47.341904 
L 156.646252 47.288654 
L 161.022715 46.070697 
L 165.399178 46.460629 
L 169.775641 46.116628 
L 174.152105 45.62084 
L 178.528568 45.958479 
L 182.905031 45.562855 
L 187.281494 44.963227 
" style="fill:none;stroke:#d62728;stroke-linecap:square;stroke-width:1.5;"/>
   </g>
   <g id="line2d_27">
    <path clip-path="url(#pafddf7640d)" d="M 52.705254 106.221549 
L 58.175833 101.591361 
L 63.646412 89.48889 
L 69.116991 81.130841 
L 74.587569 75.935995 
L 80.058148 71.750092 
L 85.528727 65.274126 
L 90.999306 61.588063 
L 96.469885 59.879264 
L 101.940464 57.715407 
L 107.411043 54.908246 
L 112.881621 56.129858 
L 118.3522 54.33306 
L 123.822779 51.7722 
L 129.293358 51.902432 
L 134.763937 48.473917 
L 140.234516 48.305829 
L 145.705095 48.366686 
L 151.175673 51.283873 
L 156.646252 50.42924 
L 162.116831 50.438431 
L 167.58741 50.234506 
L 173.057989 50.172925 
L 178.528568 49.315895 
L 183.999146 49.756019 
L 189.469725 49.410238 
L 194.940304 47.775715 
L 200.410883 46.514458 
L 205.881462 46.499358 
L 211.352041 43.826892 
L 216.82262 42.45507 
L 222.293198 41.216122 
" style="fill:none;stroke:#9467bd;stroke-linecap:square;stroke-width:1.5;"/>
   </g>
   <g id="line2d_28">
    <path clip-path="url(#pafddf7640d)" d="M 53.79937 99.500252 
L 60.364064 95.757319 
L 66.928759 84.477714 
L 73.493454 76.910709 
L 80.058148 72.433405 
L 86.622843 64.468937 
L 93.187538 59.33701 
L 99.752232 59.251436 
L 106.316927 59.717415 
L 112.881621 55.345607 
L 119.446316 54.142065 
L 126.011011 53.329583 
L 132.575705 48.51277 
L 139.1404 46.700439 
L 145.705095 50.9586 
L 152.269789 50.626769 
L 158.834484 48.87619 
L 165.399178 49.785689 
L 171.963873 50.115724 
L 178.528568 49.066232 
L 185.093262 48.69056 
L 191.657957 47.888346 
L 198.222651 46.94874 
L 204.787346 46.051616 
L 211.352041 42.748995 
L 217.916735 41.803484 
L 224.48143 41.738482 
L 231.046125 41.177169 
L 237.610819 41.709667 
L 244.175514 42.061321 
L 250.740208 41.491977 
L 257.304903 41.314249 
" style="fill:none;stroke:#8c564b;stroke-linecap:square;stroke-width:1.5;"/>
   </g>
   <g id="line2d_29">
    <path clip-path="url(#pafddf7640d)" d="M 54.893486 93.659632 
L 62.552296 91.208962 
L 70.211106 79.657358 
L 77.869917 73.779221 
L 85.528727 65.533171 
L 93.187538 60.5613 
L 100.846348 57.797208 
L 108.505158 57.704426 
L 116.163969 55.138293 
L 123.822779 52.959214 
L 131.48159 50.35862 
L 139.1404 50.586792 
L 146.79921 49.860555 
L 154.458021 47.150566 
L 162.116831 49.599685 
L 169.775641 50.434387 
L 177.434452 48.362152 
L 185.093262 45.545216 
L 192.752073 46.940656 
L 200.410883 45.220723 
L 208.069693 44.827629 
L 215.728504 42.050663 
L 223.387314 41.316732 
L 231.046125 41.513443 
L 238.704935 42.47179 
L 246.363745 42.128106 
L 254.022556 41.553057 
L 261.681366 42.180921 
L 269.340177 43.649943 
L 276.998987 43.188237 
L 284.657797 42.918256 
L 292.316608 31.631285 
" style="fill:none;stroke:#e377c2;stroke-linecap:square;stroke-width:1.5;"/>
   </g>
   <g id="line2d_30">
    <path clip-path="url(#pafddf7640d)" d="M 55.987601 77.139162 
L 64.740528 73.116627 
L 73.493454 60.694743 
L 82.24638 53.842873 
L 90.999306 47.590425 
L 99.752232 44.63668 
L 108.505158 41.664364 
L 117.258084 42.630661 
L 126.011011 39.779735 
L 134.763937 37.959392 
L 143.516863 36.121509 
L 152.269789 37.844544 
L 161.022715 37.709627 
L 169.775641 34.889505 
L 178.528568 33.888588 
L 187.281494 40.782001 
L 196.03442 35.521816 
L 204.787346 34.283007 
L 213.540272 32.347869 
L 222.293198 32.447105 
L 231.046125 31.89776 
L 239.799051 32.171262 
L 248.551977 31.959492 
L 257.304903 31.694608 
L 266.057829 32.176816 
L 274.810755 31.600071 
L 283.563682 31.4653 
L 292.316608 31.864323 
L 301.069534 31.4779 
L 309.82246 31.355085 
L 318.575386 31.78439 
L 327.328312 31.692746 
" style="fill:none;stroke:#7f7f7f;stroke-linecap:square;stroke-width:1.5;"/>
   </g>
   <g id="patch_3">
    <path d="M 34.240625 171.24375 
L 34.240625 22.318125 
" style="fill:none;stroke:#000000;stroke-linecap:square;stroke-linejoin:miter;stroke-width:0.8;"/>
   </g>
   <g id="patch_4">
    <path d="M 342.1 171.24375 
L 342.1 22.318125 
" style="fill:none;stroke:#000000;stroke-linecap:square;stroke-linejoin:miter;stroke-width:0.8;"/>
   </g>
   <g id="patch_5">
    <path d="M 34.240625 171.24375 
L 342.1 171.24375 
" style="fill:none;stroke:#000000;stroke-linecap:square;stroke-linejoin:miter;stroke-width:0.8;"/>
   </g>
   <g id="patch_6">
    <path d="M 34.240625 22.318125 
L 342.1 22.318125 
" style="fill:none;stroke:#000000;stroke-linecap:square;stroke-linejoin:miter;stroke-width:0.8;"/>
   </g>
   <g id="text_14">
    <!-- Host to Device -->
    <defs>
     <path d="M 9.8125 72.90625 
L 19.671875 72.90625 
L 19.671875 43.015625 
L 55.515625 43.015625 
L 55.515625 72.90625 
L 65.375 72.90625 
L 65.375 0 
L 55.515625 0 
L 55.515625 34.71875 
L 19.671875 34.71875 
L 19.671875 0 
L 9.8125 0 
z
" id="DejaVuSans-48"/>
     <path d="M 30.609375 48.390625 
Q 23.390625 48.390625 19.1875 42.75 
Q 14.984375 37.109375 14.984375 27.296875 
Q 14.984375 17.484375 19.15625 11.84375 
Q 23.34375 6.203125 30.609375 6.203125 
Q 37.796875 6.203125 41.984375 11.859375 
Q 46.1875 17.53125 46.1875 27.296875 
Q 46.1875 37.015625 41.984375 42.703125 
Q 37.796875 48.390625 30.609375 48.390625 
z
M 30.609375 56 
Q 42.328125 56 49.015625 48.375 
Q 55.71875 40.765625 55.71875 27.296875 
Q 55.71875 13.875 49.015625 6.21875 
Q 42.328125 -1.421875 30.609375 -1.421875 
Q 18.84375 -1.421875 12.171875 6.21875 
Q 5.515625 13.875 5.515625 27.296875 
Q 5.515625 40.765625 12.171875 48.375 
Q 18.84375 56 30.609375 56 
z
" id="DejaVuSans-6f"/>
     <path d="M 2.984375 54.6875 
L 12.5 54.6875 
L 29.59375 8.796875 
L 46.6875 54.6875 
L 56.203125 54.6875 
L 35.6875 0 
L 23.484375 0 
z
" id="DejaVuSans-76"/>
    </defs>
    <g transform="translate(144.150937 16.318125)scale(0.12 -0.12)">
     <use xlink:href="#DejaVuSans-48"/>
     <use x="75.195312" xlink:href="#DejaVuSans-6f"/>
     <use x="136.376953" xlink:href="#DejaVuSans-73"/>
     <use x="188.476562" xlink:href="#DejaVuSans-74"/>
     <use x="227.685547" xlink:href="#DejaVuSans-20"/>
     <use x="259.472656" xlink:href="#DejaVuSans-74"/>
     <use x="298.681641" xlink:href="#DejaVuSans-6f"/>
     <use x="359.863281" xlink:href="#DejaVuSans-20"/>
     <use x="391.650391" xlink:href="#DejaVuSans-44"/>
     <use x="468.652344" xlink:href="#DejaVuSans-65"/>
     <use x="530.175781" xlink:href="#DejaVuSans-76"/>
     <use x="589.355469" xlink:href="#DejaVuSans-69"/>
     <use x="617.138672" xlink:href="#DejaVuSans-63"/>
     <use x="672.119141" xlink:href="#DejaVuSans-65"/>
    </g>
   </g>
   <g id="legend_1">
    <g id="patch_7">
     <path d="M 364.492969 147.743125 
L 493.788281 147.743125 
Q 495.788281 147.743125 495.788281 145.743125 
L 495.788281 29.318125 
Q 495.788281 27.318125 493.788281 27.318125 
L 364.492969 27.318125 
Q 362.492969 27.318125 362.492969 29.318125 
L 362.492969 145.743125 
Q 362.492969 147.743125 364.492969 147.743125 
z
" style="fill:#ffffff;opacity:0.8;stroke:#cccccc;stroke-linejoin:miter;"/>
    </g>
    <g id="line2d_31">
     <path d="M 366.492969 35.416562 
L 386.492969 35.416562 
" style="fill:none;stroke:#1f77b4;stroke-linecap:square;stroke-width:1.5;"/>
    </g>
    <g id="line2d_32"/>
    <g id="text_15">
     <!-- Anzahl Bloecke = 1 -->
     <defs>
      <path d="M 9.078125 75.984375 
L 18.109375 75.984375 
L 18.109375 31.109375 
L 44.921875 54.6875 
L 56.390625 54.6875 
L 27.390625 29.109375 
L 57.625 0 
L 45.90625 0 
L 18.109375 26.703125 
L 18.109375 0 
L 9.078125 0 
z
" id="DejaVuSans-6b"/>
      <path d="M 10.59375 45.40625 
L 73.1875 45.40625 
L 73.1875 37.203125 
L 10.59375 37.203125 
z
M 10.59375 25.484375 
L 73.1875 25.484375 
L 73.1875 17.1875 
L 10.59375 17.1875 
z
" id="DejaVuSans-3d"/>
     </defs>
     <g transform="translate(394.492969 38.916562)scale(0.1 -0.1)">
      <use xlink:href="#DejaVuSans-41"/>
      <use x="68.408203" xlink:href="#DejaVuSans-6e"/>
      <use x="131.787109" xlink:href="#DejaVuSans-7a"/>
      <use x="184.277344" xlink:href="#DejaVuSans-61"/>
      <use x="245.556641" xlink:href="#DejaVuSans-68"/>
      <use x="308.935547" xlink:href="#DejaVuSans-6c"/>
      <use x="336.71875" xlink:href="#DejaVuSans-20"/>
      <use x="368.505859" xlink:href="#DejaVuSans-42"/>
      <use x="437.109375" xlink:href="#DejaVuSans-6c"/>
      <use x="464.892578" xlink:href="#DejaVuSans-6f"/>
      <use x="526.074219" xlink:href="#DejaVuSans-65"/>
      <use x="587.597656" xlink:href="#DejaVuSans-63"/>
      <use x="642.578125" xlink:href="#DejaVuSans-6b"/>
      <use x="700.441406" xlink:href="#DejaVuSans-65"/>
      <use x="761.964844" xlink:href="#DejaVuSans-20"/>
      <use x="793.751953" xlink:href="#DejaVuSans-3d"/>
      <use x="877.541016" xlink:href="#DejaVuSans-20"/>
      <use x="909.328125" xlink:href="#DejaVuSans-31"/>
     </g>
    </g>
    <g id="line2d_33">
     <path d="M 366.492969 50.094687 
L 386.492969 50.094687 
" style="fill:none;stroke:#ff7f0e;stroke-linecap:square;stroke-width:1.5;"/>
    </g>
    <g id="line2d_34"/>
    <g id="text_16">
     <!-- Anzahl Bloecke = 2 -->
     <g transform="translate(394.492969 53.594687)scale(0.1 -0.1)">
      <use xlink:href="#DejaVuSans-41"/>
      <use x="68.408203" xlink:href="#DejaVuSans-6e"/>
      <use x="131.787109" xlink:href="#DejaVuSans-7a"/>
      <use x="184.277344" xlink:href="#DejaVuSans-61"/>
      <use x="245.556641" xlink:href="#DejaVuSans-68"/>
      <use x="308.935547" xlink:href="#DejaVuSans-6c"/>
      <use x="336.71875" xlink:href="#DejaVuSans-20"/>
      <use x="368.505859" xlink:href="#DejaVuSans-42"/>
      <use x="437.109375" xlink:href="#DejaVuSans-6c"/>
      <use x="464.892578" xlink:href="#DejaVuSans-6f"/>
      <use x="526.074219" xlink:href="#DejaVuSans-65"/>
      <use x="587.597656" xlink:href="#DejaVuSans-63"/>
      <use x="642.578125" xlink:href="#DejaVuSans-6b"/>
      <use x="700.441406" xlink:href="#DejaVuSans-65"/>
      <use x="761.964844" xlink:href="#DejaVuSans-20"/>
      <use x="793.751953" xlink:href="#DejaVuSans-3d"/>
      <use x="877.541016" xlink:href="#DejaVuSans-20"/>
      <use x="909.328125" xlink:href="#DejaVuSans-32"/>
     </g>
    </g>
    <g id="line2d_35">
     <path d="M 366.492969 64.772812 
L 386.492969 64.772812 
" style="fill:none;stroke:#2ca02c;stroke-linecap:square;stroke-width:1.5;"/>
    </g>
    <g id="line2d_36"/>
    <g id="text_17">
     <!-- Anzahl Bloecke = 3 -->
     <g transform="translate(394.492969 68.272812)scale(0.1 -0.1)">
      <use xlink:href="#DejaVuSans-41"/>
      <use x="68.408203" xlink:href="#DejaVuSans-6e"/>
      <use x="131.787109" xlink:href="#DejaVuSans-7a"/>
      <use x="184.277344" xlink:href="#DejaVuSans-61"/>
      <use x="245.556641" xlink:href="#DejaVuSans-68"/>
      <use x="308.935547" xlink:href="#DejaVuSans-6c"/>
      <use x="336.71875" xlink:href="#DejaVuSans-20"/>
      <use x="368.505859" xlink:href="#DejaVuSans-42"/>
      <use x="437.109375" xlink:href="#DejaVuSans-6c"/>
      <use x="464.892578" xlink:href="#DejaVuSans-6f"/>
      <use x="526.074219" xlink:href="#DejaVuSans-65"/>
      <use x="587.597656" xlink:href="#DejaVuSans-63"/>
      <use x="642.578125" xlink:href="#DejaVuSans-6b"/>
      <use x="700.441406" xlink:href="#DejaVuSans-65"/>
      <use x="761.964844" xlink:href="#DejaVuSans-20"/>
      <use x="793.751953" xlink:href="#DejaVuSans-3d"/>
      <use x="877.541016" xlink:href="#DejaVuSans-20"/>
      <use x="909.328125" xlink:href="#DejaVuSans-33"/>
     </g>
    </g>
    <g id="line2d_37">
     <path d="M 366.492969 79.450937 
L 386.492969 79.450937 
" style="fill:none;stroke:#d62728;stroke-linecap:square;stroke-width:1.5;"/>
    </g>
    <g id="line2d_38"/>
    <g id="text_18">
     <!-- Anzahl Bloecke = 4 -->
     <g transform="translate(394.492969 82.950937)scale(0.1 -0.1)">
      <use xlink:href="#DejaVuSans-41"/>
      <use x="68.408203" xlink:href="#DejaVuSans-6e"/>
      <use x="131.787109" xlink:href="#DejaVuSans-7a"/>
      <use x="184.277344" xlink:href="#DejaVuSans-61"/>
      <use x="245.556641" xlink:href="#DejaVuSans-68"/>
      <use x="308.935547" xlink:href="#DejaVuSans-6c"/>
      <use x="336.71875" xlink:href="#DejaVuSans-20"/>
      <use x="368.505859" xlink:href="#DejaVuSans-42"/>
      <use x="437.109375" xlink:href="#DejaVuSans-6c"/>
      <use x="464.892578" xlink:href="#DejaVuSans-6f"/>
      <use x="526.074219" xlink:href="#DejaVuSans-65"/>
      <use x="587.597656" xlink:href="#DejaVuSans-63"/>
      <use x="642.578125" xlink:href="#DejaVuSans-6b"/>
      <use x="700.441406" xlink:href="#DejaVuSans-65"/>
      <use x="761.964844" xlink:href="#DejaVuSans-20"/>
      <use x="793.751953" xlink:href="#DejaVuSans-3d"/>
      <use x="877.541016" xlink:href="#DejaVuSans-20"/>
      <use x="909.328125" xlink:href="#DejaVuSans-34"/>
     </g>
    </g>
    <g id="line2d_39">
     <path d="M 366.492969 94.129062 
L 386.492969 94.129062 
" style="fill:none;stroke:#9467bd;stroke-linecap:square;stroke-width:1.5;"/>
    </g>
    <g id="line2d_40"/>
    <g id="text_19">
     <!-- Anzahl Bloecke = 5 -->
     <g transform="translate(394.492969 97.629062)scale(0.1 -0.1)">
      <use xlink:href="#DejaVuSans-41"/>
      <use x="68.408203" xlink:href="#DejaVuSans-6e"/>
      <use x="131.787109" xlink:href="#DejaVuSans-7a"/>
      <use x="184.277344" xlink:href="#DejaVuSans-61"/>
      <use x="245.556641" xlink:href="#DejaVuSans-68"/>
      <use x="308.935547" xlink:href="#DejaVuSans-6c"/>
      <use x="336.71875" xlink:href="#DejaVuSans-20"/>
      <use x="368.505859" xlink:href="#DejaVuSans-42"/>
      <use x="437.109375" xlink:href="#DejaVuSans-6c"/>
      <use x="464.892578" xlink:href="#DejaVuSans-6f"/>
      <use x="526.074219" xlink:href="#DejaVuSans-65"/>
      <use x="587.597656" xlink:href="#DejaVuSans-63"/>
      <use x="642.578125" xlink:href="#DejaVuSans-6b"/>
      <use x="700.441406" xlink:href="#DejaVuSans-65"/>
      <use x="761.964844" xlink:href="#DejaVuSans-20"/>
      <use x="793.751953" xlink:href="#DejaVuSans-3d"/>
      <use x="877.541016" xlink:href="#DejaVuSans-20"/>
      <use x="909.328125" xlink:href="#DejaVuSans-35"/>
     </g>
    </g>
    <g id="line2d_41">
     <path d="M 366.492969 108.807187 
L 386.492969 108.807187 
" style="fill:none;stroke:#8c564b;stroke-linecap:square;stroke-width:1.5;"/>
    </g>
    <g id="line2d_42"/>
    <g id="text_20">
     <!-- Anzahl Bloecke = 6 -->
     <g transform="translate(394.492969 112.307187)scale(0.1 -0.1)">
      <use xlink:href="#DejaVuSans-41"/>
      <use x="68.408203" xlink:href="#DejaVuSans-6e"/>
      <use x="131.787109" xlink:href="#DejaVuSans-7a"/>
      <use x="184.277344" xlink:href="#DejaVuSans-61"/>
      <use x="245.556641" xlink:href="#DejaVuSans-68"/>
      <use x="308.935547" xlink:href="#DejaVuSans-6c"/>
      <use x="336.71875" xlink:href="#DejaVuSans-20"/>
      <use x="368.505859" xlink:href="#DejaVuSans-42"/>
      <use x="437.109375" xlink:href="#DejaVuSans-6c"/>
      <use x="464.892578" xlink:href="#DejaVuSans-6f"/>
      <use x="526.074219" xlink:href="#DejaVuSans-65"/>
      <use x="587.597656" xlink:href="#DejaVuSans-63"/>
      <use x="642.578125" xlink:href="#DejaVuSans-6b"/>
      <use x="700.441406" xlink:href="#DejaVuSans-65"/>
      <use x="761.964844" xlink:href="#DejaVuSans-20"/>
      <use x="793.751953" xlink:href="#DejaVuSans-3d"/>
      <use x="877.541016" xlink:href="#DejaVuSans-20"/>
      <use x="909.328125" xlink:href="#DejaVuSans-36"/>
     </g>
    </g>
    <g id="line2d_43">
     <path d="M 366.492969 123.485312 
L 386.492969 123.485312 
" style="fill:none;stroke:#e377c2;stroke-linecap:square;stroke-width:1.5;"/>
    </g>
    <g id="line2d_44"/>
    <g id="text_21">
     <!-- Anzahl Bloecke = 7 -->
     <defs>
      <path d="M 8.203125 72.90625 
L 55.078125 72.90625 
L 55.078125 68.703125 
L 28.609375 0 
L 18.3125 0 
L 43.21875 64.59375 
L 8.203125 64.59375 
z
" id="DejaVuSans-37"/>
     </defs>
     <g transform="translate(394.492969 126.985312)scale(0.1 -0.1)">
      <use xlink:href="#DejaVuSans-41"/>
      <use x="68.408203" xlink:href="#DejaVuSans-6e"/>
      <use x="131.787109" xlink:href="#DejaVuSans-7a"/>
      <use x="184.277344" xlink:href="#DejaVuSans-61"/>
      <use x="245.556641" xlink:href="#DejaVuSans-68"/>
      <use x="308.935547" xlink:href="#DejaVuSans-6c"/>
      <use x="336.71875" xlink:href="#DejaVuSans-20"/>
      <use x="368.505859" xlink:href="#DejaVuSans-42"/>
      <use x="437.109375" xlink:href="#DejaVuSans-6c"/>
      <use x="464.892578" xlink:href="#DejaVuSans-6f"/>
      <use x="526.074219" xlink:href="#DejaVuSans-65"/>
      <use x="587.597656" xlink:href="#DejaVuSans-63"/>
      <use x="642.578125" xlink:href="#DejaVuSans-6b"/>
      <use x="700.441406" xlink:href="#DejaVuSans-65"/>
      <use x="761.964844" xlink:href="#DejaVuSans-20"/>
      <use x="793.751953" xlink:href="#DejaVuSans-3d"/>
      <use x="877.541016" xlink:href="#DejaVuSans-20"/>
      <use x="909.328125" xlink:href="#DejaVuSans-37"/>
     </g>
    </g>
    <g id="line2d_45">
     <path d="M 366.492969 138.163437 
L 386.492969 138.163437 
" style="fill:none;stroke:#7f7f7f;stroke-linecap:square;stroke-width:1.5;"/>
    </g>
    <g id="line2d_46"/>
    <g id="text_22">
     <!-- Anzahl Bloecke = 8 -->
     <g transform="translate(394.492969 141.663437)scale(0.1 -0.1)">
      <use xlink:href="#DejaVuSans-41"/>
      <use x="68.408203" xlink:href="#DejaVuSans-6e"/>
      <use x="131.787109" xlink:href="#DejaVuSans-7a"/>
      <use x="184.277344" xlink:href="#DejaVuSans-61"/>
      <use x="245.556641" xlink:href="#DejaVuSans-68"/>
      <use x="308.935547" xlink:href="#DejaVuSans-6c"/>
      <use x="336.71875" xlink:href="#DejaVuSans-20"/>
      <use x="368.505859" xlink:href="#DejaVuSans-42"/>
      <use x="437.109375" xlink:href="#DejaVuSans-6c"/>
      <use x="464.892578" xlink:href="#DejaVuSans-6f"/>
      <use x="526.074219" xlink:href="#DejaVuSans-65"/>
      <use x="587.597656" xlink:href="#DejaVuSans-63"/>
      <use x="642.578125" xlink:href="#DejaVuSans-6b"/>
      <use x="700.441406" xlink:href="#DejaVuSans-65"/>
      <use x="761.964844" xlink:href="#DejaVuSans-20"/>
      <use x="793.751953" xlink:href="#DejaVuSans-3d"/>
      <use x="877.541016" xlink:href="#DejaVuSans-20"/>
      <use x="909.328125" xlink:href="#DejaVuSans-38"/>
     </g>
    </g>
   </g>
  </g>
 </g>
 <defs>
  <clipPath id="pafddf7640d">
   <rect height="148.925625" width="307.859375" x="34.240625" y="22.318125"/>
  </clipPath>
 </defs>
</svg>
